<svg width="32" height="31" viewBox="0 0 32 31" fill="none" xmlns="http://www.w3.org/2000/svg">
<mask id="mask0_470_79" style="mask-type:luminance" maskUnits="userSpaceOnUse" x="0" y="0" width="31" height="31">
<path d="M30.6382 0.373016H0.638184V30.373H30.6382V0.373016Z" fill="white"/>
</mask>
<g mask="url(#mask0_470_79)">
<path fill-rule="evenodd" clip-rule="evenodd" d="M20.0247 1.95927C17.8843 2.27363 15.855 3.54921 14.6713 5.32419C13.7712 6.67378 13.3359 8.09761 13.3366 9.68943C13.3372 11.3742 13.8324 12.9268 14.7959 14.265C15.4594 15.1865 16.6543 16.2056 17.6596 16.7076C19.4357 17.5942 21.6915 17.756 23.5583 17.1306C25.5016 16.4796 27.119 15.1106 28.0513 13.328C28.7112 12.066 28.9734 10.8829 28.9223 9.39804C28.8869 8.3713 28.7429 7.67116 28.3844 6.78206C28.2116 6.35345 28.1903 6.25507 28.2538 6.17802C28.5635 5.80202 29.1479 5.13652 29.4856 4.7754C29.9795 4.247 30.1181 3.95638 30.1181 3.44919C30.1181 2.99368 29.9821 2.65876 29.6734 2.35443C29.3296 2.01546 29.0962 1.92575 28.5581 1.92575C27.9063 1.92575 27.7151 2.0488 26.948 2.96198C26.6146 3.35884 26.3234 3.70501 26.3008 3.7312C26.2781 3.75745 26.0854 3.647 25.8724 3.48581C24.4608 2.41736 22.857 1.88714 21.0874 1.90384C20.6845 1.90765 20.2063 1.93261 20.0247 1.95927ZM20.4721 2.87087C18.8883 3.04208 17.435 3.73519 16.3106 4.85544C15.2651 5.89718 14.6109 7.15976 14.3804 8.58107C13.7016 12.7671 16.9109 16.5449 21.146 16.5449C25.6254 16.5449 28.8996 12.2989 27.7638 7.96273C27.6973 7.70878 27.6052 7.41066 27.559 7.30027L27.4751 7.09947L25.6783 9.2587C22.3455 13.2635 22.1669 13.4374 21.3871 13.4388C20.7211 13.4401 20.7523 13.4633 18.7221 11.4517C17.419 10.1605 16.8214 9.52788 16.7442 9.35784C16.4791 8.77425 16.568 8.15644 16.9853 7.68241C17.3022 7.32241 17.6705 7.14933 18.1247 7.14704C18.7622 7.14376 18.8386 7.19427 20.1292 8.47261L21.3097 9.64191L21.7494 9.12364C23.7522 6.76366 25.5984 4.55474 25.5987 4.51823C25.5994 4.43439 24.807 3.88829 24.3083 3.62902C23.7241 3.32527 23.0639 3.09353 22.4402 2.97341C21.9774 2.88429 20.8779 2.82698 20.4721 2.87087ZM28.2819 2.9338C28.1944 2.99169 26.6828 4.7529 24.9228 6.84763C23.1628 8.94236 21.6802 10.6892 21.6282 10.7295C21.5763 10.7698 21.4417 10.8027 21.3292 10.8027C21.1408 10.8027 21.0179 10.6965 19.769 9.45505C18.4265 8.12046 18.4109 8.1074 18.1638 8.1074C17.8109 8.1074 17.5717 8.3474 17.5717 8.70148V8.95302L19.3287 10.7128L21.0857 12.4726H21.347C21.5656 12.4726 21.6431 12.4392 21.8225 12.2676C22.1885 11.9174 23.391 10.5151 25.3648 8.13669C26.4079 6.87986 27.5794 5.48814 27.9683 5.04394C29.1861 3.65292 29.1733 3.66986 29.1733 3.4479C29.1733 3.01197 28.6338 2.70083 28.2819 2.9338ZM11.0472 16.0546C10.3877 16.1961 9.73952 16.5174 7.53428 17.7958C6.38034 18.4647 5.40136 19.0255 5.3587 19.0418C5.3096 19.0606 5.20501 18.9358 5.07376 18.7018C4.72348 18.0772 4.37555 17.834 3.8321 17.834C3.61366 17.834 3.42241 17.8757 3.25788 17.9591C2.61891 18.2833 1.64456 18.8658 1.47382 19.0256C1.21559 19.2674 1.08569 19.6284 1.11786 20.0151C1.141 20.2938 1.36694 20.7189 3.4152 24.3379C4.66466 26.5454 5.74184 28.4107 5.80899 28.4828C6.03809 28.7293 6.41128 28.8657 6.78305 28.8388C7.07309 28.8178 7.23827 28.7487 7.95487 28.3485C8.41372 28.0924 8.88071 27.8077 8.99268 27.716C9.28389 27.4774 9.42721 27.1628 9.42721 26.7625C9.42721 26.474 9.38796 26.3557 9.13952 25.8949L8.85188 25.3612L9.2904 25.1055L9.72897 24.8499L10.9404 25.1771C14.2347 26.0671 16.1242 26.5706 16.5757 26.6787C17.4911 26.8979 18.4406 26.818 19.2266 26.4555C19.8036 26.1894 29.2907 20.3267 29.5723 20.062C29.7113 19.9316 29.8958 19.6736 29.9825 19.4886C30.1208 19.1935 30.14 19.0805 30.1397 18.5664C30.1391 17.8199 30.0099 17.5008 29.5284 17.057C28.7914 16.3776 27.7875 16.3165 26.4431 16.8692C25.9314 17.0795 25.9251 17.0831 22.5229 19.0639C20.031 20.5147 19.9477 20.561 19.6211 20.6762L19.3987 20.7547L19.5247 20.4809C19.7028 20.0937 19.7028 19.3242 19.5246 18.9369C19.3693 18.5993 18.9766 18.1654 18.6568 17.978C18.5214 17.8986 18.0728 17.7599 17.628 17.6599C16.6684 17.4441 15.6004 17.1147 13.9537 16.5267C12.2794 15.9288 11.9119 15.8691 11.0472 16.0546ZM11.0558 17.0415C10.5816 17.172 10.048 17.4514 7.88802 18.7C6.303 19.6162 5.80032 19.9333 5.82581 20.0006C5.88136 20.1478 8.26612 24.3615 8.33661 24.4371C8.38641 24.4906 8.53331 24.4318 8.95846 24.1885C9.26462 24.0133 9.57253 23.8698 9.64272 23.8696C9.71292 23.8693 11.3457 24.2915 13.2712 24.8078C15.1967 25.324 16.9547 25.7766 17.1779 25.8134C17.6831 25.8969 18.3261 25.8097 18.7973 25.594C18.9753 25.5125 21.3322 24.0837 24.0349 22.4187C29.3709 19.1316 29.113 19.3156 29.2066 18.7304C29.2822 18.2576 29.0064 17.7294 28.5942 17.5571C28.1424 17.3684 27.2192 17.5171 26.4589 17.901C26.3244 17.969 24.9247 18.7763 23.3486 19.695C20.51 21.3495 20.0684 21.5815 19.5268 21.7029C19.0942 21.7999 18.194 21.7747 17.4839 21.6457C16.7028 21.5039 13.8458 20.7301 13.658 20.6095C13.4653 20.4857 13.3901 20.2539 13.4756 20.0475C13.6274 19.6811 13.778 19.6845 15.223 20.0879C17.2525 20.6545 17.6113 20.728 17.9634 20.6492C18.4994 20.5292 18.8244 19.9921 18.6816 19.462C18.5955 19.142 18.2556 18.8002 17.9505 18.7269C16.1251 18.2878 15.6581 18.1454 13.1186 17.2539C12.3572 16.9866 12.2204 16.9561 11.8003 16.9606C11.5424 16.9633 11.2074 16.9997 11.0558 17.0415ZM2.92659 19.2344C2.48526 19.4905 2.11471 19.7456 2.08395 19.8146C2.03796 19.9177 2.39227 20.5796 4.2603 23.8802C5.63866 26.3156 6.53655 27.8428 6.60915 27.8752C6.70155 27.9164 6.88073 27.8428 7.44704 27.5309C8.35091 27.033 8.48971 26.9352 8.48971 26.7965C8.48971 26.689 4.22438 19.0829 4.0469 18.874C3.99903 18.8176 3.90458 18.7728 3.83708 18.7744C3.76958 18.776 3.35983 18.983 2.92659 19.2344ZM3.24686 19.958C3.15634 20.0366 3.08122 20.1774 3.06059 20.3068C3.03077 20.4943 3.05034 20.5481 3.20456 20.7024C3.5004 20.9982 3.91471 20.9295 4.06952 20.5589C4.28491 20.0435 3.66745 19.5925 3.24686 19.958Z" fill="#06268B"/>
</g>
</svg>
