<svg width="30" height="31" viewBox="0 0 30 31" fill="none" xmlns="http://www.w3.org/2000/svg">
<path fill-rule="evenodd" clip-rule="evenodd" d="M7.11166 1.853C6.21602 2.17309 5.83325 2.7959 5.83325 3.9332V4.49128L4.41207 4.51001L2.9909 4.52875L2.55817 4.74273C2.03699 5.00043 1.71209 5.33238 1.45989 5.86479L1.27856 6.2475V15.9614V25.6753L1.49467 26.1126C1.82295 26.7768 2.36716 27.2027 3.08325 27.3559C3.31723 27.4059 5.0974 27.4188 9.99916 27.4057C16.2143 27.3892 16.6059 27.3822 16.701 27.2871C16.8554 27.1327 16.8366 26.7451 16.668 26.6086C16.5384 26.5035 16.3248 26.5001 9.94421 26.5001C4.93773 26.5001 3.29769 26.4834 3.11854 26.4304C2.80384 26.3374 2.32924 25.8628 2.23625 25.5481C2.1832 25.3685 2.16659 23.5983 2.16659 18.1145V10.9168H14.9999H27.8332V14.8922C27.8332 18.7075 27.8376 18.873 27.9417 19.0015C28.0782 19.1701 28.4658 19.1889 28.6203 19.0345C28.7153 18.9395 28.7223 18.5683 28.7389 12.791C28.7517 8.28714 28.7387 6.56449 28.6899 6.33343C28.5373 5.61036 28.0772 5.0379 27.3852 4.71007L27.0025 4.52875L25.5905 4.51007L24.1784 4.49139L24.1568 3.82257C24.1383 3.25068 24.1137 3.10734 23.9865 2.83372C23.4674 1.71676 22.0467 1.42147 21.089 2.23147C20.9876 2.31723 20.8201 2.55923 20.7166 2.76932C20.5422 3.12355 20.5271 3.20004 20.5082 3.82566L20.4878 4.5001H18.6666H16.8453L16.8236 3.82692C16.805 3.25046 16.7805 3.1078 16.6532 2.83372C16.1341 1.71676 14.7133 1.42147 13.7557 2.23147C13.6543 2.31723 13.4867 2.55923 13.3833 2.76932C13.2089 3.12355 13.1937 3.20004 13.1749 3.82566L13.1545 4.5001H11.3333H9.51201L9.49029 3.82692C9.47167 3.25046 9.44721 3.1078 9.31985 2.83372C8.93055 1.99605 7.94107 1.55663 7.11166 1.853ZM7.29132 2.74417C7.05975 2.8493 6.81993 3.14154 6.77765 3.37025C6.75891 3.47177 6.75141 4.25552 6.76103 5.11192C6.77759 6.58048 6.78527 6.67804 6.8967 6.82712C7.12128 7.12773 7.30433 7.22146 7.66658 7.22146C8.0289 7.22146 8.212 7.12761 8.43647 6.827C8.54962 6.67547 8.55461 6.59652 8.55461 4.95843C8.55461 3.32035 8.54962 3.2414 8.43647 3.08987C8.3715 3.00284 8.25096 2.88132 8.16863 2.81985C7.979 2.67828 7.52324 2.63898 7.29132 2.74417ZM14.6247 2.74417C14.3931 2.8493 14.1533 3.14154 14.111 3.37025C14.0922 3.47177 14.0847 4.25552 14.0944 5.11192C14.1109 6.58048 14.1186 6.67804 14.23 6.82712C14.4546 7.12773 14.6377 7.22146 14.9999 7.22146C15.3622 7.22146 15.5453 7.12761 15.7698 6.827C15.883 6.67547 15.8879 6.59652 15.8879 4.95843C15.8879 3.32035 15.883 3.2414 15.7698 3.08987C15.7048 3.00284 15.5843 2.88132 15.502 2.81985C15.3123 2.67828 14.8566 2.63898 14.6247 2.74417ZM21.958 2.74417C21.7264 2.8493 21.4866 3.14154 21.4443 3.37025C21.4256 3.47177 21.4181 4.25552 21.4277 5.11192C21.4443 6.58048 21.4519 6.67804 21.5634 6.82712C21.7879 7.12773 21.971 7.22146 22.3333 7.22146C22.6956 7.22146 22.8787 7.12761 23.1031 6.827C23.2163 6.67547 23.2213 6.59652 23.2213 4.95843C23.2213 3.32035 23.2163 3.2414 23.1031 3.08987C23.0382 3.00284 22.9176 2.88132 22.8353 2.81985C22.6457 2.67828 22.1899 2.63898 21.958 2.74417ZM3.09316 5.48947C2.98826 5.52304 2.77789 5.66249 2.62566 5.79942C2.18394 6.19651 2.16659 6.29081 2.16659 8.29155V10.0001H14.9999H27.8332V8.30232C27.8332 7.15637 27.8111 6.53063 27.7651 6.3772C27.7277 6.25219 27.5856 6.02595 27.4493 5.87441C27.0711 5.45366 26.9076 5.41677 25.4228 5.41677H24.1787L24.157 6.08994C24.1383 6.66641 24.1139 6.80907 23.9865 7.08315C23.674 7.75553 23.0752 8.13738 22.3333 8.13738C21.5913 8.13738 20.9925 7.75553 20.68 7.08315C20.5526 6.80907 20.5282 6.66641 20.5095 6.08994L20.4878 5.41677H18.6666H16.8453L16.8236 6.08994C16.805 6.66641 16.7805 6.80907 16.6532 7.08315C16.3407 7.75553 15.7418 8.13738 14.9999 8.13738C14.258 8.13738 13.6591 7.75553 13.3467 7.08315C13.2193 6.80907 13.1948 6.66641 13.1762 6.08994L13.1545 5.41677H11.3333H9.51201L9.49029 6.08994C9.47167 6.66641 9.44721 6.80907 9.31985 7.08315C9.00738 7.75553 8.40851 8.13738 7.66658 8.13738C6.92466 8.13738 6.32579 7.75553 6.01332 7.08315C5.88596 6.80907 5.8615 6.66641 5.84288 6.08994L5.82116 5.41677L4.5525 5.42261C3.83039 5.42593 3.20162 5.45475 3.09316 5.48947ZM5.44252 13.3048C5.33785 13.3564 5.18316 13.4891 5.09877 13.5998C4.94563 13.8005 4.94523 13.8038 4.94523 14.8126C4.94523 15.8227 4.94546 15.8244 5.09957 16.0264C5.37177 16.3833 5.51322 16.4168 6.74992 16.4168C7.98662 16.4168 8.12807 16.3833 8.40026 16.0264C8.55438 15.8244 8.55461 15.8227 8.55461 14.8126C8.55461 13.8025 8.55438 13.8008 8.40026 13.5988C8.12744 13.241 7.98776 13.2083 6.74127 13.2098C5.83251 13.2108 5.59847 13.2279 5.44252 13.3048ZM10.9425 13.3048C10.8378 13.3564 10.6832 13.4891 10.5988 13.5998C10.4456 13.8005 10.4452 13.8038 10.4452 14.8126C10.4452 15.8227 10.4455 15.8244 10.5996 16.0264C10.8718 16.3833 11.0132 16.4168 12.2499 16.4168C13.4866 16.4168 13.6281 16.3833 13.9003 16.0264C14.0544 15.8244 14.0546 15.8227 14.0546 14.8126C14.0546 13.8025 14.0544 13.8008 13.9003 13.5988C13.6274 13.241 13.4878 13.2083 12.2413 13.2098C11.3325 13.2108 11.0985 13.2279 10.9425 13.3048ZM16.4425 13.3048C16.3378 13.3564 16.1832 13.4891 16.0988 13.5998C15.9456 13.8005 15.9452 13.8038 15.9452 14.8126C15.9452 15.8227 15.9455 15.8244 16.0996 16.0264C16.3718 16.3833 16.5132 16.4168 17.7499 16.4168C18.9866 16.4168 19.1281 16.3833 19.4003 16.0264C19.5544 15.8244 19.5546 15.8227 19.5546 14.8126C19.5546 13.8025 19.5544 13.8008 19.4003 13.5988C19.1274 13.241 18.9878 13.2083 17.7413 13.2098C16.8325 13.2108 16.5985 13.2279 16.4425 13.3048ZM21.9425 13.3048C21.8378 13.3564 21.6832 13.4891 21.5988 13.5998C21.4456 13.8005 21.4452 13.8038 21.4452 14.8126C21.4452 15.8227 21.4455 15.8244 21.5996 16.0264C21.8718 16.3833 22.0132 16.4168 23.2499 16.4168C24.4866 16.4168 24.6281 16.3833 24.9003 16.0264C25.0544 15.8244 25.0546 15.8227 25.0546 14.8126C25.0546 13.8025 25.0544 13.8008 24.9003 13.5988C24.6274 13.241 24.4878 13.2083 23.2413 13.2098C22.3325 13.2108 22.0985 13.2279 21.9425 13.3048ZM5.83325 14.8126V15.5001H6.74992H7.66658V14.8126V14.1251H6.74992H5.83325V14.8126ZM11.3333 14.8126V15.5001H12.2499H13.1666V14.8126V14.1251H12.2499H11.3333V14.8126ZM16.8333 14.8126V15.5001H17.7499H18.6666V14.8126V14.1251H17.7499H16.8333V14.8126ZM22.3333 14.8126V15.5001H23.2499H24.1666V14.8126V14.1251H23.2499H22.3333V14.8126ZM5.44252 17.4298C5.33785 17.4814 5.18316 17.6141 5.09877 17.7248C4.94563 17.9255 4.94523 17.9288 4.94523 18.9376C4.94523 19.9477 4.94546 19.9494 5.09957 20.1514C5.37177 20.5083 5.51322 20.5418 6.74992 20.5418C7.98662 20.5418 8.12807 20.5083 8.40026 20.1514C8.55438 19.9494 8.55461 19.9477 8.55461 18.9376C8.55461 17.9275 8.55438 17.9258 8.40026 17.7238C8.12744 17.366 7.98776 17.3333 6.74127 17.3348C5.83251 17.3358 5.59847 17.3529 5.44252 17.4298ZM10.9425 17.4298C10.8378 17.4814 10.6832 17.6141 10.5988 17.7248C10.4456 17.9255 10.4452 17.9288 10.4452 18.9376C10.4452 19.9477 10.4455 19.9494 10.5996 20.1514C10.8718 20.5083 11.0132 20.5418 12.2499 20.5418C13.4866 20.5418 13.6281 20.5083 13.9003 20.1514C14.0544 19.9494 14.0546 19.9477 14.0546 18.9376C14.0546 17.9275 14.0544 17.9258 13.9003 17.7238C13.6274 17.366 13.4878 17.3333 12.2413 17.3348C11.3325 17.3358 11.0985 17.3529 10.9425 17.4298ZM16.4425 17.4298C16.3378 17.4814 16.1832 17.614 16.0988 17.7246C15.9489 17.9208 15.9448 17.948 15.9271 18.8589C15.9118 19.646 15.9243 19.8245 16.0068 19.9984C16.2787 20.5715 17.1084 20.7233 17.2508 20.2259C17.32 19.9842 17.2146 19.7439 17.0046 19.6646L16.8333 19.6V18.9287V18.2573L17.8626 18.2394C19.0398 18.2189 19.0937 18.199 19.0937 17.7849C19.0937 17.6082 19.0606 17.5236 18.9597 17.4419C18.8386 17.3438 18.721 17.3335 17.7292 17.3348C16.8316 17.3358 16.5982 17.353 16.4425 17.4298ZM21.9609 17.3929C20.6264 17.6009 19.4549 18.2069 18.5274 19.1691C17.77 19.9548 17.306 20.7762 17.0239 21.8308C16.8885 22.3369 16.8707 22.5074 16.8719 23.2918C16.8731 24.0677 16.8925 24.2519 17.0252 24.7514C17.2075 25.4379 17.6348 26.3341 18.0229 26.8438C18.3762 27.3081 19.0484 27.9487 19.4864 28.2384C19.987 28.5697 20.7257 28.8967 21.3475 29.0624C21.8319 29.1914 22.018 29.2106 22.7916 29.2106C23.5707 29.2106 23.7498 29.1919 24.2525 29.0584C24.8573 28.8978 25.549 28.5934 26.0775 28.2553C26.4926 27.9898 27.2037 27.3126 27.5597 26.8438C27.9534 26.3254 28.3808 25.4315 28.5595 24.7527C28.6913 24.2521 28.7104 24.0676 28.7104 23.2918C28.7104 22.5127 28.6917 22.3335 28.5582 21.8308C28.29 20.8211 27.82 19.9729 27.1171 19.2302C26.0035 18.0536 24.5931 17.4148 22.9921 17.362C22.614 17.3495 22.1499 17.3635 21.9609 17.3929ZM5.83325 18.9376V19.6251H6.74992H7.66658V18.9376V18.2501H6.74992H5.83325V18.9376ZM11.3333 18.9376V19.6251H12.2499H13.1666V18.9376V18.2501H12.2499H11.3333V18.9376ZM21.7603 18.362C20.46 18.6393 19.347 19.3908 18.6144 20.486C17.2749 22.4887 17.5211 25.1104 19.2095 26.8221C21.1818 28.8215 24.3598 28.8322 26.3458 26.846C27.5277 25.6642 28.0342 24.0583 27.7462 22.4065C27.3896 20.3617 25.773 18.7308 23.7163 18.3409C23.0977 18.2236 22.3724 18.2315 21.7603 18.362ZM25.5702 21.295C25.5072 21.3292 24.6505 22.1592 23.6664 23.1395L21.877 24.9218L21.031 24.0827C20.1339 23.1931 19.9765 23.094 19.7234 23.2599C19.5103 23.3995 19.4372 23.5931 19.5211 23.7956C19.5588 23.8866 20.0603 24.4292 20.6355 25.0013C21.5811 25.942 21.7002 26.0418 21.8765 26.0418C22.0564 26.0418 22.2273 25.8866 24.0685 24.0509C25.1667 22.9559 26.1022 21.9904 26.1472 21.9053C26.2658 21.6811 26.2496 21.5847 26.0616 21.3967C25.8844 21.2195 25.7575 21.1933 25.5702 21.295ZM5.44252 21.5548C5.33785 21.6064 5.18316 21.7391 5.09877 21.8498C4.94563 22.0505 4.94523 22.0538 4.94523 23.0626C4.94523 24.0727 4.94546 24.0744 5.09957 24.2764C5.37177 24.6333 5.51322 24.6668 6.74992 24.6668C7.98662 24.6668 8.12807 24.6333 8.40026 24.2764C8.55438 24.0744 8.55461 24.0727 8.55461 23.0626C8.55461 22.0525 8.55438 22.0508 8.40026 21.8488C8.12744 21.491 7.98776 21.4583 6.74127 21.4598C5.83251 21.4608 5.59847 21.4779 5.44252 21.5548ZM10.9425 21.5548C10.8378 21.6064 10.6832 21.7391 10.5988 21.8498C10.4456 22.0505 10.4452 22.0538 10.4452 23.0626C10.4452 24.0727 10.4455 24.0744 10.5996 24.2764C10.8718 24.6333 11.0132 24.6668 12.2499 24.6668C13.4866 24.6668 13.6281 24.6333 13.9003 24.2764C14.0544 24.0744 14.0546 24.0727 14.0546 23.0626C14.0546 22.0525 14.0544 22.0508 13.9003 21.8488C13.6274 21.491 13.4878 21.4583 12.2413 21.4598C11.3325 21.4608 11.0985 21.4779 10.9425 21.5548ZM5.83325 23.0626V23.7501H6.74992H7.66658V23.0626V22.3751H6.74992H5.83325V23.0626ZM11.3333 23.0626V23.7501H12.2499H13.1666V23.0626V22.3751H12.2499H11.3333V23.0626Z" fill="#06268B"/>
</svg>
