<svg width="31" height="32" viewBox="0 0 31 32" fill="none" xmlns="http://www.w3.org/2000/svg">
<g clip-path="url(#clip0_470_29)">
<mask id="mask0_470_29" style="mask-type:luminance" maskUnits="userSpaceOnUse" x="0" y="0" width="31" height="31">
<path d="M30.3553 0.734863H0.355347V30.7349H30.3553V0.734863Z" fill="white"/>
</mask>
<g mask="url(#mask0_470_29)">
<path fill-rule="evenodd" clip-rule="evenodd" d="M7.94324 0.817694C7.38173 1.06724 7.1657 1.82351 7.35126 2.89027C7.51082 3.8075 7.8298 4.44799 8.45459 5.10564L8.79378 5.46271L8.73572 6.01385C8.65123 6.81635 8.66423 7.90777 8.7639 8.37834C8.84593 8.76541 8.84459 8.79137 8.73642 8.9065C8.5021 9.15588 8.43138 9.45166 8.42142 10.2231C8.40976 11.1343 8.48359 11.4202 8.83017 11.8057C9.1556 12.1677 9.43187 12.2754 10.1468 12.3189L10.7219 12.3539L10.7611 12.6236C10.8741 13.3994 11.2939 14.3108 11.8329 14.9504C12.1214 15.2928 12.3635 15.4999 12.9988 15.9474C13.0979 16.0172 13.0901 16.0565 12.6525 17.6824L12.5305 18.1356L11.1743 18.571L9.81824 19.0062L8.85144 19.0333C7.70306 19.0653 7.24697 19.169 6.36121 19.5996C5.10062 20.2122 4.17472 21.1565 3.57068 22.4454C3.07837 23.4959 3.08599 23.425 3.06437 27.1824C3.04673 30.2537 3.053 30.5233 3.14494 30.6248C3.24185 30.7319 3.5766 30.735 15.3553 30.735C27.1341 30.735 27.4688 30.7319 27.5658 30.6248C27.6577 30.5233 27.664 30.2538 27.6461 27.1824C27.6241 23.3749 27.6361 23.4778 27.0767 22.3268C26.464 21.0662 25.5197 20.1403 24.2308 19.5362C23.4335 19.1626 22.9682 19.0638 21.8593 19.0329L20.8925 19.0059L19.5302 18.5679C18.7809 18.327 18.1678 18.121 18.1678 18.1101C18.1678 18.0992 18.0493 17.646 17.9043 17.1031C17.7593 16.5601 17.6407 16.0895 17.6407 16.0572C17.6407 16.025 17.7628 15.9215 17.9121 15.8272C18.5873 15.4006 19.2374 14.6384 19.5979 13.8506C19.8001 13.4087 19.9843 12.7661 19.9843 12.5025C19.9843 12.355 19.9901 12.3532 20.5733 12.3211C21.0488 12.2949 21.2236 12.2587 21.4803 12.1331C21.8741 11.9404 22.1281 11.6417 22.2488 11.2293C22.3739 10.8018 22.3366 9.54453 22.1885 9.20176C22.0715 8.93058 21.841 8.67101 21.6101 8.55037L21.4487 8.46611L21.5887 8.18943C21.9204 7.53371 22.2007 6.24002 22.2516 5.12949C22.2808 4.49217 22.2686 4.33619 22.1576 3.92832C21.7196 2.31992 20.5647 1.15701 19.1552 0.905116C18.6672 0.817929 16.9182 0.897499 15.0917 1.08998C12.6755 1.34463 11.3145 1.30736 9.50892 0.936991C8.43894 0.717558 8.20814 0.699921 7.94324 0.817694ZM8.094 1.59248C7.94728 1.77898 7.93615 2.17771 8.05849 2.86437C8.28941 4.15965 9.11054 5.04019 10.7264 5.72527C11.0487 5.86191 11.0487 5.86191 14.4764 5.89121L17.9042 5.92051L18.2557 6.08498C18.8703 6.37244 19.1535 6.72969 19.5841 7.76082C19.7393 8.13248 19.9304 8.50068 20.0087 8.57908C20.1389 8.70928 20.1668 8.71514 20.3317 8.64682C20.8837 8.41818 21.2785 7.49504 21.4792 5.96357C21.6068 4.99033 21.5932 4.45701 21.4276 3.93541C21.0452 2.73137 20.1887 1.85486 19.1639 1.61885C18.6471 1.49984 17.4178 1.55603 14.7478 1.82088C12.3933 2.05443 11.0245 2.00211 9.27396 1.61176C8.31853 1.39865 8.24734 1.39748 8.094 1.59248ZM9.40644 6.38861C9.34216 7.16035 9.40046 8.21814 9.52363 8.51551C9.68376 8.90217 9.99865 9.01754 10.5079 8.87609L10.7288 8.81474L10.713 7.64357L10.6971 6.4724L10.2281 6.28045C9.97011 6.17486 9.68916 6.04268 9.60373 5.98672L9.44839 5.88494L9.40644 6.38861ZM11.4423 9.68275L11.4607 12.776L11.6168 13.2058C12.1412 14.65 13.3337 15.6152 14.8923 15.857C16.4355 16.0964 18.1009 15.2183 18.8536 13.7683C19.2729 12.9604 19.2935 12.8292 19.324 10.7625L19.351 8.92467L19.2061 8.65308C19.1264 8.50367 19.004 8.20648 18.9343 7.99267C18.7381 7.39174 18.4277 7.0015 17.9335 6.73443C17.7408 6.63031 17.5383 6.62258 14.5761 6.60658L11.4238 6.58953L11.4423 9.68275ZM0.448862 7.36578C0.397417 7.43926 0.355347 7.54156 0.355347 7.59318C0.355347 7.6448 0.752319 8.1974 1.23748 8.82113C1.87744 9.64396 2.0981 9.96723 2.04132 9.99904C1.99826 10.0231 1.68701 10.1124 1.34962 10.1975C0.636128 10.3774 0.472534 10.4653 0.472534 10.6687C0.472534 10.8483 2.52156 13.5399 2.70191 13.5972C2.8488 13.6438 3.1065 13.4875 3.11617 13.3459C3.1307 13.1346 3.07896 13.0533 2.28431 12.0397C1.83566 11.4675 1.46863 10.9744 1.46863 10.944C1.46863 10.9137 1.80056 10.8014 2.20621 10.6945C2.79765 10.5387 2.96201 10.4724 3.03566 10.36C3.1191 10.2327 3.11904 10.2028 3.0346 10.0331C2.98351 9.93037 2.4847 9.26621 1.92619 8.55723C1.02589 7.41435 0.889839 7.26611 0.726538 7.25023C0.588726 7.23682 0.518882 7.26588 0.448862 7.36578ZM29.2853 7.92734C27.5241 10.1537 27.532 10.1418 27.6759 10.3613C27.7485 10.4721 27.9159 10.5395 28.5045 10.6945C28.9101 10.8014 29.2421 10.9137 29.2421 10.944C29.2421 10.9744 28.8777 11.4649 28.4325 12.0341C27.9872 12.6032 27.605 13.117 27.583 13.1757C27.5021 13.3931 27.785 13.6682 28.0146 13.5954C28.0783 13.5751 28.6046 12.9496 29.1842 12.2054C30.3036 10.7682 30.3832 10.6156 30.1063 10.4385C30.0338 10.3921 29.6976 10.2827 29.3593 10.1953C29.0209 10.1078 28.7096 10.0181 28.6676 9.99582C28.6139 9.96734 28.8543 9.61695 29.4732 8.82113C29.9584 8.1974 30.3553 7.6448 30.3553 7.59318C30.3553 7.4143 30.1801 7.23887 30.0014 7.23887C29.8525 7.23887 29.7584 7.32934 29.2853 7.92734ZM20.8136 9.17363C20.6562 9.30488 20.2457 9.42975 20.1246 9.38328C20.0564 9.35709 20.0428 9.54189 20.0428 10.5V11.6481L20.5262 11.6217C21.4149 11.5733 21.584 11.3903 21.6164 10.4419C21.6421 9.69201 21.5777 9.41756 21.3263 9.20609C21.1134 9.02691 20.9985 9.01965 20.8136 9.17363ZM9.18865 9.51031C9.14775 9.60488 9.12033 9.95328 9.12167 10.3607C9.12373 10.9555 9.14013 11.0724 9.24039 11.2067C9.48449 11.5336 9.6264 11.5927 10.1814 11.5986L10.6971 11.6041L10.7131 10.6023L10.7291 9.60043L10.2151 9.60617C9.78179 9.61103 9.66624 9.59135 9.47951 9.48102L9.25802 9.35006L9.18865 9.51031ZM4.93873 11.6074C4.67769 11.7903 4.75468 11.9481 5.68064 13.1288C6.16035 13.7404 6.53605 14.2582 6.5156 14.2794C6.49515 14.3006 6.15343 14.4035 5.75628 14.5078C5.18488 14.658 5.01542 14.7263 4.94417 14.835C4.89466 14.9105 4.86712 15.0055 4.883 15.046C4.92712 15.1589 6.91556 17.7464 7.02226 17.8297C7.24029 18 7.56238 17.8357 7.56238 17.5542C7.56238 17.4702 7.24333 17.0118 6.71136 16.3314C6.12185 15.5775 5.88332 15.2305 5.935 15.202C5.97607 15.1794 6.2865 15.0894 6.62488 15.002C7.79523 14.6995 7.7957 14.7132 6.55966 13.1166C5.24681 11.4208 5.22894 11.4041 4.93873 11.6074ZM25.3968 11.561C25.3605 11.5847 24.8529 12.2184 24.2689 12.9692C22.8982 14.7311 22.9013 14.6959 24.0858 15.002C24.4242 15.0894 24.7346 15.1794 24.7757 15.202C24.8274 15.2305 24.5888 15.5775 23.9993 16.3314C23.4277 17.0626 23.1483 17.4673 23.1483 17.5644C23.1483 17.8363 23.4747 17.9966 23.6885 17.8297C23.818 17.7286 25.728 15.2674 25.8011 15.1075C25.8454 15.0106 25.8371 14.9428 25.7684 14.8378C25.6949 14.7256 25.5322 14.6597 24.9544 14.5078C24.5573 14.4035 24.2155 14.3006 24.1951 14.2794C24.1746 14.2582 24.5503 13.7404 25.0301 13.1288C25.956 11.9481 26.033 11.7903 25.772 11.6074C25.6313 11.5089 25.5014 11.4928 25.3968 11.561ZM0.510913 14.3187C0.315562 14.5345 0.389272 14.6778 1.29332 15.8392C1.82751 16.5254 2.14369 16.9787 2.09892 16.9941C2.05843 17.0081 1.72515 17.0987 1.3583 17.1955C0.689448 17.3721 0.472534 17.487 0.472534 17.6651C0.472534 17.7619 2.45218 20.39 2.62679 20.525C2.67888 20.5653 2.76917 20.5982 2.82748 20.5982C2.97033 20.5982 3.16785 20.3922 3.16785 20.2432C3.16785 20.1769 2.78511 19.6315 2.3173 19.0313C1.84949 18.4311 1.48691 17.922 1.51164 17.9001C1.5363 17.8782 1.87292 17.7767 2.25964 17.6745C2.97548 17.4853 3.10925 17.4048 3.10925 17.163C3.10925 17.0421 1.49406 14.889 1.03802 14.402C0.837925 14.1883 0.655112 14.1594 0.510913 14.3187ZM29.7934 14.2563C29.7582 14.28 29.2507 14.9142 28.6654 15.6655C28.0077 16.51 27.6014 17.0818 27.6014 17.1631C27.6014 17.4048 27.7353 17.4853 28.451 17.6745C28.8378 17.7767 29.1744 17.8782 29.1991 17.9001C29.2238 17.922 28.8612 18.4311 28.3934 19.0313C27.9256 19.6315 27.5428 20.1769 27.5428 20.2432C27.5428 20.3922 27.7404 20.5982 27.8832 20.5982C27.9415 20.5982 28.0318 20.5653 28.0839 20.525C28.2148 20.4237 30.1202 17.9688 30.1945 17.8056C30.2644 17.6523 30.1369 17.4053 29.9614 17.354C29.9041 17.3373 29.5936 17.2546 29.2714 17.1703C28.9491 17.0861 28.6523 17.0062 28.6118 16.993C28.5675 16.9784 28.8894 16.5175 29.4174 15.8392C30.3319 14.6645 30.4105 14.5084 30.1896 14.3085C30.0771 14.2067 29.9014 14.1836 29.7934 14.2563ZM13.4588 17.3769L13.176 18.4329L13.274 19.2951C13.3302 19.7886 13.4015 20.176 13.4409 20.2007C13.8561 20.4621 15.9847 20.5509 16.8202 20.3417C17.0619 20.2812 17.2776 20.2153 17.2996 20.1952C17.3215 20.1752 17.3832 19.7731 17.4364 19.3018L17.5334 18.4448L17.2568 17.3975C17.1047 16.8215 16.9772 16.3463 16.9735 16.3416C16.9697 16.3368 16.7689 16.3862 16.5272 16.4511C15.8915 16.622 14.8427 16.6207 14.2268 16.4482C13.9766 16.3782 13.7652 16.3209 13.7568 16.3209C13.7485 16.3209 13.6144 16.7961 13.4588 17.3769ZM11.4397 19.2212C10.9135 19.3927 10.4725 19.5436 10.4597 19.5564C10.4468 19.5692 10.7126 20.0732 11.0502 20.6762C11.3877 21.2793 11.6639 21.8239 11.6639 21.8864C11.6639 21.9489 11.4703 22.2327 11.2336 22.5171L10.8033 23.0342L12.183 25.7398C12.9418 27.228 13.5668 28.44 13.5718 28.433C13.5769 28.4261 13.3424 26.2782 13.0509 23.6598C12.7146 20.6394 12.498 18.9009 12.4586 18.9042C12.4244 18.907 11.9659 19.0497 11.4397 19.2212ZM17.6598 23.6598C17.3683 26.2782 17.1338 28.4261 17.1389 28.433C17.1439 28.44 17.7689 27.228 18.5277 25.7398L19.9074 23.0342L19.4771 22.5171C19.2404 22.2327 19.0468 21.9478 19.0468 21.884C19.0468 21.8202 19.2803 21.3532 19.5657 20.8462C19.8511 20.3392 20.1282 19.8396 20.1815 19.7359L20.2783 19.5474L19.2655 19.2232C18.7085 19.0449 18.2386 18.899 18.2213 18.899C18.2041 18.899 17.9513 21.0414 17.6598 23.6598ZM8.08972 19.7599C6.00138 20.111 4.26865 21.7742 3.84642 23.8331C3.76937 24.2087 3.75378 24.7682 3.75378 27.1583V30.0318H8.65263C13.294 30.0318 13.5494 30.0264 13.5125 29.9293C13.4911 29.8729 12.6958 28.2982 11.7453 26.4299C10.5767 24.1329 10.0271 22.9946 10.048 22.9143C10.0649 22.8489 10.2624 22.5806 10.487 22.318L10.8951 21.8405L10.3052 20.7799L9.71523 19.7193L8.97572 19.7273C8.56896 19.7317 8.17029 19.7463 8.08972 19.7599ZM20.4051 20.7808L19.8146 21.8422L20.1616 22.2454C20.6246 22.7834 20.7045 22.913 20.6597 23.0542C20.639 23.1191 19.8606 24.6695 18.9297 26.4995C17.9989 28.3295 17.2197 29.8729 17.1982 29.9293C17.1613 30.0264 17.4168 30.0318 22.061 30.0318H26.9627L26.9427 26.9703C26.9233 24 26.9188 23.896 26.792 23.4798C26.5125 22.5628 25.9995 21.7425 25.2981 21.0907C24.2928 20.1566 23.1434 19.7193 21.6935 19.7193H20.9955L20.4051 20.7808ZM13.4802 21.0461C13.4799 21.1814 14.4058 29.5795 14.4498 29.8414L14.4818 30.0318H15.3553H16.2289L16.2609 29.8414C16.3026 29.5934 17.2308 21.1851 17.2305 21.0576C17.2303 20.9685 17.2022 20.9674 16.8934 21.0448C16.3336 21.1852 14.8937 21.2168 14.2286 21.1034C13.9168 21.0503 13.6208 20.9912 13.5709 20.972C13.5093 20.9484 13.4803 20.972 13.4802 21.0461Z" fill="#06268B"/>
</g>
</g>
<defs>
<clipPath id="clip0_470_29">
<rect width="31" height="31" fill="white" transform="translate(0 0.5)"/>
</clipPath>
</defs>
</svg>
