<svg width="32" height="31" viewBox="0 0 32 31" fill="none" xmlns="http://www.w3.org/2000/svg">
<mask id="mask0_470_85" style="mask-type:luminance" maskUnits="userSpaceOnUse" x="1" y="0" width="31" height="31">
<path d="M31.2988 0.621033H1.29883V30.621H31.2988V0.621033Z" fill="white"/>
</mask>
<g mask="url(#mask0_470_85)">
<path fill-rule="evenodd" clip-rule="evenodd" d="M13.6197 1.05961C12.7375 1.30629 11.9429 1.96682 11.5778 2.75689C11.1653 3.64969 11.1694 4.60084 11.5894 5.47406C11.7844 5.87953 11.9594 6.075 13.9372 8.09654C15.1126 9.29795 16.1447 10.3055 16.2308 10.3355C16.3169 10.3655 16.44 10.3697 16.5043 10.3449C16.7035 10.2679 20.7229 6.18375 20.9419 5.83588C21.323 5.23031 21.4193 4.89023 21.4227 4.13666C21.4253 3.58377 21.4022 3.39445 21.2938 3.08197C20.9896 2.20435 20.2615 1.46801 19.3662 1.13221C19.0832 1.02609 18.9009 1.00371 18.3204 1.00371C17.5413 1.00371 17.1888 1.09588 16.653 1.43971L16.3742 1.61865L16.0289 1.4107C15.8391 1.29639 15.5518 1.16074 15.3907 1.1093C14.9818 0.978748 14.0067 0.951385 13.6197 1.05961ZM13.6771 1.81664C13.2016 1.97133 12.7015 2.36062 12.3872 2.82064C12.3202 2.91861 12.2076 3.1691 12.137 3.37728C12.0309 3.68988 12.0138 3.8417 12.0385 4.24904C12.0644 4.67607 12.0987 4.79988 12.294 5.1716C12.4924 5.54912 12.7523 5.83535 14.4477 7.54394L16.3758 9.48697L18.3197 7.52959C20.0616 5.7757 20.2844 5.52973 20.4639 5.16328C20.6551 4.77293 20.6641 4.725 20.6641 4.10736C20.6641 3.49652 20.6535 3.43887 20.4746 3.07553C20.2434 2.60572 19.772 2.14184 19.302 1.92158C19 1.78002 18.8979 1.76361 18.3204 1.76361C17.5878 1.76361 17.3352 1.84635 16.7945 2.26353C16.6288 2.39139 16.4341 2.49603 16.3619 2.49603C16.2898 2.49603 16.119 2.40445 15.9824 2.29254C15.5292 1.92117 15.1115 1.7707 14.4825 1.75213C14.1251 1.74158 13.8368 1.76467 13.6771 1.81664ZM11.4418 12.0186C10.0127 12.4198 9.11296 13.8463 9.4054 15.247C9.71765 16.7425 11.1143 17.741 12.56 17.5022C14.6695 17.1538 15.6554 14.7405 14.3784 13.0513C14.0746 12.6493 13.5804 12.2805 13.118 12.1106C12.6456 11.937 11.8817 11.8951 11.4418 12.0186ZM19.7852 12.0149C19.1471 12.1788 18.6102 12.5343 18.2188 13.0519C16.9424 14.7405 17.9288 17.154 20.0378 17.5022C20.5889 17.5932 21.0922 17.5116 21.6697 17.2373C22.9379 16.635 23.5506 15.156 23.0884 13.8126C22.6259 12.468 21.1493 11.6644 19.7852 12.0149ZM11.5437 12.7696C10.464 13.1727 9.90491 14.1681 10.1713 15.213C10.5637 16.7521 12.3902 17.2922 13.559 16.2148C13.7005 16.0844 13.8936 15.8249 13.9882 15.6383C14.1426 15.3335 14.1602 15.2418 14.1602 14.7421C14.1601 14.0763 14.0518 13.7899 13.6297 13.3385C13.2354 12.9171 12.8269 12.7329 12.233 12.7088C11.93 12.6966 11.6803 12.7185 11.5437 12.7696ZM19.8335 12.7723C19.4853 12.886 19.2211 13.0622 18.9375 13.3699C18.5438 13.7971 18.4377 14.0883 18.4376 14.7421C18.4376 15.2418 18.4551 15.3335 18.6096 15.6383C19.0304 16.4688 19.9755 16.9259 20.8826 16.7377C21.3448 16.6417 21.8679 16.2898 22.1243 15.9023C22.8244 14.8447 22.4935 13.5151 21.383 12.9232C21.0697 12.7562 20.9468 12.7249 20.5469 12.7099C20.2622 12.6993 19.9822 12.7237 19.8335 12.7723ZM7.80281 16.4215C6.90204 16.5616 6.23279 16.9672 5.80165 17.6342C5.39255 18.2671 5.24261 19.0744 5.40404 19.7746C5.61978 20.7107 6.44407 21.5539 7.38152 21.7976C7.52038 21.8337 7.63658 21.876 7.63974 21.8916C7.6429 21.9072 7.62685 22.0847 7.60406 22.2861C7.572 22.5692 7.54089 22.6523 7.46671 22.6523C7.27001 22.6523 6.5895 22.8483 6.23911 23.0059C5.03847 23.5459 4.11398 24.6349 3.72697 25.9649C3.64294 26.2538 3.62085 26.6364 3.59976 28.1698C3.57468 29.9892 3.57656 30.0276 3.69632 30.1474L3.81843 30.2695H16.2989H28.7794L28.9015 30.1474C29.0212 30.0276 29.0231 29.9892 28.998 28.1698C28.9704 26.1592 28.9512 26.0169 28.6038 25.2509C28.0461 24.0208 26.9081 23.0688 25.6116 22.7476C25.4 22.6952 25.1844 22.6523 25.1324 22.6523C25.0617 22.6523 25.026 22.5672 24.9912 22.3154C24.9655 22.13 24.9439 21.9538 24.943 21.9237C24.9422 21.8936 25.0601 21.8381 25.2051 21.8005C26.1539 21.554 26.9768 20.7157 27.1938 19.7746C27.4953 18.4666 26.7688 17.0923 25.5155 16.5998C24.1056 16.0459 22.4283 16.8074 21.947 18.22C21.896 18.3697 21.8452 18.4921 21.8341 18.4921C21.8231 18.4921 21.6344 18.4503 21.4148 18.3992C20.8972 18.2787 19.9563 18.2783 19.4447 18.3984C18.9596 18.5123 18.9356 18.5129 18.9356 18.4121C18.9356 18.1935 18.5041 17.4935 18.1769 17.1814C17.1036 16.1576 15.4942 16.1576 14.4209 17.1814C14.0937 17.4935 13.6622 18.1935 13.6622 18.4121C13.6622 18.5149 13.5696 18.5129 13.1524 18.4011C12.7029 18.2808 11.5775 18.281 11.1426 18.4014C10.9654 18.4505 10.8031 18.4911 10.7819 18.4914C10.7608 18.4918 10.7018 18.3697 10.6508 18.22C10.3471 17.3286 9.46781 16.6015 8.50482 16.4453C8.11962 16.3828 8.06402 16.3809 7.80281 16.4215ZM7.59773 17.223C7.019 17.3721 6.61511 17.688 6.33749 18.2089C6.06855 18.7134 6.02583 19.3415 6.22464 19.8687C6.40593 20.3495 6.88294 20.8265 7.36376 21.0078C8.04878 21.2661 8.89534 21.1049 9.42116 20.6162C10.4445 19.6649 10.2029 17.9916 8.9537 17.3794C8.52702 17.1703 8.02652 17.1125 7.59773 17.223ZM15.7763 17.2341C15.37 17.3478 15.143 17.4899 14.8359 17.823C14.455 18.2364 14.3372 18.5463 14.3366 19.1379C14.3361 19.5847 14.3563 19.6784 14.5289 20.029C14.7387 20.4551 15.0384 20.7527 15.4741 20.9674C15.6954 21.0765 15.8396 21.0996 16.2989 21.0996C16.7582 21.0996 16.9024 21.0765 17.1237 20.9674C17.5594 20.7527 17.8591 20.4551 18.0689 20.029C18.2413 19.6788 18.2618 19.5841 18.2618 19.1379C18.2618 18.7099 18.2384 18.591 18.0981 18.3052C17.6746 17.4429 16.6762 16.9823 15.7763 17.2341ZM24.0291 17.2246C22.9656 17.5114 22.3286 18.5709 22.5943 19.6112C22.8244 20.5117 23.4954 21.0663 24.4141 21.1153C25.0602 21.1497 25.4637 20.9968 25.913 20.5476C26.3621 20.0984 26.515 19.6949 26.4807 19.0488C26.4319 18.1291 25.8921 17.4671 25.0018 17.2353C24.5922 17.1286 24.3933 17.1264 24.0291 17.2246ZM11.5821 19.0826C11.421 19.1098 11.1837 19.1687 11.0548 19.2135C10.83 19.2916 10.8186 19.3079 10.7763 19.6113C10.711 20.08 10.369 20.7289 9.9914 21.1005C9.64593 21.4405 9.0887 21.7537 8.72648 21.8117C8.46175 21.854 8.39396 21.9555 8.37404 22.3393L8.35945 22.6198L8.71101 22.665C10.0353 22.8355 11.275 23.6779 11.9651 24.8766C12.0767 25.0705 12.1812 25.2294 12.1973 25.2297C12.2134 25.2299 12.3006 25.0885 12.3911 24.9154C12.7707 24.1888 13.5204 23.4771 14.3311 23.0737C14.7283 22.876 15.4704 22.6523 15.7291 22.6523H15.8941L15.8768 22.2646L15.8594 21.8769L15.5372 21.7764C14.544 21.4666 13.8471 20.7233 13.6285 19.7406C13.5172 19.2404 13.5115 19.2361 12.7833 19.1036C12.2935 19.0144 12.015 19.0096 11.5821 19.0826ZM19.8731 19.0822C19.6959 19.1088 19.4454 19.1676 19.3165 19.2128C19.0871 19.2932 19.0796 19.3048 18.9641 19.7583C18.709 20.7602 18.0915 21.4291 17.1206 21.7553L16.7384 21.8837L16.721 22.268L16.7037 22.6523H16.8687C17.1274 22.6523 17.8695 22.876 18.2667 23.0737C19.0774 23.4771 19.8271 24.1888 20.2067 24.9154C20.2972 25.0885 20.3843 25.2294 20.4005 25.2286C20.4166 25.2278 20.5433 25.0366 20.6819 24.8039C21.3759 23.6395 22.5858 22.8321 23.8868 22.6652L24.2383 22.6201L24.2194 22.3304C24.1936 21.935 24.1524 21.8827 23.7959 21.7914C23.3772 21.6843 22.9134 21.4096 22.5685 21.0647C22.2251 20.7213 21.8832 20.0541 21.8207 19.6054C21.7779 19.2983 21.7655 19.2797 21.5555 19.211C21.0225 19.0363 20.4632 18.9935 19.8731 19.0822ZM7.27546 23.4426C6.22347 23.6794 5.23482 24.4532 4.76402 25.4082C4.40167 26.1431 4.348 26.4916 4.34677 28.1162L4.34577 29.5078H8.06648H11.7872V28.0259C11.7872 26.3671 11.7535 26.1403 11.3999 25.416C11.1564 24.9175 10.5974 24.2919 10.1006 23.9622C9.34575 23.4611 8.16111 23.2433 7.27546 23.4426ZM15.5181 23.4507C14.2106 23.7313 13.1645 24.678 12.7424 25.9628C12.5955 26.4096 12.5871 26.5037 12.5623 27.9697L12.5363 29.5078H16.2989H20.0615L20.0368 27.9697C20.0127 26.4748 20.0075 26.4184 19.8504 25.9628C19.2071 24.0971 17.3971 23.0476 15.5181 23.4507ZM23.7696 23.4421C23.2892 23.5479 22.8453 23.7311 22.4767 23.9757C21.9988 24.2929 21.4377 24.9249 21.1979 25.416C20.8442 26.1403 20.8106 26.3671 20.8106 28.0259V29.5078H24.5313H28.252L28.251 28.1162C28.2498 26.4916 28.1961 26.1431 27.8338 25.4082C27.1053 23.9305 25.3683 23.0902 23.7696 23.4421Z" fill="#06268B"/>
</g>
</svg>
