<svg width="31" height="32" viewBox="0 0 31 32" fill="none" xmlns="http://www.w3.org/2000/svg">
<mask id="mask0_470_35" style="mask-type:luminance" maskUnits="userSpaceOnUse" x="0" y="0" width="31" height="31">
<path d="M30.9354 0.592285H0.935425V30.5923H30.9354V0.592285Z" fill="white"/>
</mask>
<g mask="url(#mask0_470_35)">
<path fill-rule="evenodd" clip-rule="evenodd" d="M10.6558 4.00237C10.46 4.06794 10.3698 4.27015 10.3659 4.6527C10.3627 4.95071 10.3565 4.96149 10.0875 5.13335C9.71007 5.37446 9.49011 5.80612 9.49011 6.30552C9.49011 6.61765 9.46984 6.68462 9.33806 6.80772C8.88408 7.23182 8.73056 7.7863 8.72933 9.00669L8.72839 9.89175L8.33283 9.92491C7.82962 9.9671 7.37458 10.1386 6.99021 10.4309L6.68757 10.6611L6.46392 10.2786C5.47275 8.58382 3.19632 8.28622 1.80912 9.67009C1.21515 10.2627 0.939761 10.9215 0.936831 11.7568C0.93437 12.4705 1.17396 13.1343 1.62361 13.6597L1.82347 13.8931H1.53384C1.32953 13.8931 1.19869 13.9289 1.08982 14.0146L0.935425 14.136V16.0654C0.935425 17.9166 0.940171 17.9994 1.05261 18.1119C1.15972 18.219 1.24791 18.2291 2.078 18.2291H2.98621V22.5878C2.98621 26.7921 2.99019 26.9514 3.09824 27.0849L3.21021 27.2232H4.80261H6.39501L6.50699 27.0849C6.61328 26.9536 6.61902 26.8215 6.61902 24.4948V22.043L6.83875 22.0072C7.29718 21.9328 7.58482 21.7884 7.87878 21.4853C8.14046 21.2154 8.23972 21.0254 8.80832 19.7061L9.44488 18.2291H17.3484H25.2518V22.5878C25.2518 26.7921 25.2558 26.9514 25.3639 27.0849L25.4758 27.2232H27.0682H28.6606L28.7726 27.0849C28.8807 26.9514 28.8846 26.7921 28.8846 22.5878V18.2291H29.7957C30.7055 18.2291 30.7069 18.2289 30.8503 18.074L30.994 17.919V16.06C30.994 14.0194 30.9505 13.6691 30.6104 12.9741C30.379 12.501 29.8422 11.9568 29.354 11.7002C28.6622 11.3367 28.4684 11.3172 25.5436 11.316L22.9351 11.315L22.5846 11.0486C22.0997 10.6799 21.1594 10.2294 20.5643 10.0807C20.1713 9.98239 19.817 9.94958 18.8842 9.92515L17.702 9.89415L17.683 8.77354C17.6619 7.532 17.6363 7.43409 17.1881 6.88132C17.0233 6.678 16.9901 6.58893 16.9901 6.34975C16.9901 5.79352 16.7118 5.29442 16.2759 5.06901C16.1275 4.99225 16.1111 4.95364 16.1103 4.67772C16.1089 4.16034 15.8676 3.8802 15.526 3.99927C15.3224 4.07028 15.2331 4.26675 15.2291 4.6527C15.226 4.95071 15.2198 4.96149 14.9508 5.13335C14.5772 5.372 14.3534 5.80688 14.3534 6.29397C14.3534 6.6122 14.3349 6.663 14.1416 6.87704C14.0251 7.00595 13.8605 7.25966 13.7758 7.44077C13.6305 7.75161 13.6207 7.83013 13.6012 8.8394L13.5805 9.90874H13.2097H12.8389L12.8198 8.78081C12.8011 7.68141 12.7966 7.64515 12.6396 7.34743C12.5511 7.17944 12.3995 6.95181 12.3027 6.84165C12.1587 6.67765 12.1268 6.58952 12.1268 6.35567C12.1268 5.79821 11.9223 5.39614 11.5044 5.132C11.2665 4.98159 11.2605 4.96975 11.2373 4.60495C11.2043 4.08774 11.0081 3.88442 10.6558 4.00237ZM10.5582 5.78778C10.4913 5.81473 10.3104 6.10472 10.3104 6.18511C10.3104 6.20286 10.5214 6.21733 10.7792 6.21733C11.203 6.21733 11.2479 6.20649 11.2479 6.10442C11.2479 5.87227 10.8277 5.67938 10.5582 5.78778ZM15.4215 5.78778C15.3546 5.81473 15.1737 6.10472 15.1737 6.18511C15.1737 6.20286 15.3846 6.21733 15.6425 6.21733C16.0663 6.21733 16.1112 6.20649 16.1112 6.10442C16.1112 5.87227 15.691 5.67938 15.4215 5.78778ZM10.3708 7.10286C10.1024 7.20991 9.8296 7.46198 9.71939 7.70468C9.62658 7.90905 9.6097 8.09567 9.60859 8.92729L9.6073 9.90874H10.8085H12.0096V8.94862C12.0096 8.01224 12.0056 7.98083 11.8465 7.67626C11.7144 7.42343 11.6239 7.33284 11.371 7.20077C11.0416 7.02868 10.6521 6.99054 10.3708 7.10286ZM15.2724 7.09723C15.0064 7.17704 14.7261 7.42565 14.5937 7.69911C14.4836 7.92651 14.4706 8.05741 14.4706 8.93116V9.90874H15.6718H16.8729V8.94862C16.8729 8.01224 16.8689 7.98083 16.7098 7.67626C16.4445 7.16837 15.8428 6.92602 15.2724 7.09723ZM3.39636 9.69628C2.96927 9.81388 2.68111 9.97612 2.39775 10.2586C1.34025 11.3129 1.66375 13.0654 3.03455 13.708C3.31738 13.8406 3.44582 13.8638 3.89441 13.8638C4.34916 13.8638 4.47015 13.8413 4.77332 13.6998C5.23093 13.4862 5.63125 13.0879 5.83832 12.6398C5.98164 12.3297 6.00361 12.2112 6.00244 11.7544C6.00126 11.3126 5.9766 11.1744 5.85003 10.9021C5.56621 10.2916 5.06869 9.87464 4.42351 9.70659C4.01289 9.5996 3.75677 9.59708 3.39636 9.69628ZM7.74519 10.9387C7.40171 11.1099 7.18345 11.3418 7.00527 11.7251C6.88714 11.9792 6.88164 12.1 6.85339 15.0357L6.8241 18.0826L6.37 19.0966C5.79121 20.3891 5.7741 20.6961 6.2623 21.0251C6.62107 21.2669 7.19183 21.1508 7.39 20.7957C7.43136 20.7215 7.74203 20.0411 8.08029 19.2837L8.69529 17.9068L8.72652 16.0119L8.75769 14.1169L8.89603 14.005C9.03103 13.8958 9.28673 13.8931 19.5494 13.8931H30.0644L30.0265 13.7613C29.8589 13.1788 29.4494 12.6904 28.8753 12.388L28.5624 12.2232L25.5977 12.1939C23.5734 12.1739 22.6069 12.1441 22.5508 12.1002C22.5056 12.0648 22.3109 11.909 22.1181 11.754C21.6818 11.4033 20.9717 11.0598 20.3645 10.9054C19.9153 10.7913 19.7182 10.7876 13.9746 10.7876H8.0483L7.74519 10.9387ZM0.961675 16.0611C0.961675 17.1407 0.969585 17.5823 0.979253 17.0425C0.988921 16.5028 0.988921 15.6194 0.979253 15.0796C0.969585 14.5398 0.961675 14.9815 0.961675 16.0611ZM1.75574 16.0904V17.4087H3.89441H6.03308V16.0904V14.772H3.89441H1.75574V16.0904ZM9.6073 16.0904V17.4087H19.8612H30.1151V16.0904V14.772H19.8612H9.6073V16.0904ZM3.80652 22.3013V26.3736H4.80261H5.79871V24.071V21.7685L5.56591 21.5412C5.22378 21.2071 5.07923 20.8614 5.07525 20.3677C5.0722 19.9908 5.10138 19.8895 5.43531 19.1174C5.63517 18.6553 5.79871 18.2664 5.79871 18.2531C5.79871 18.2399 5.35046 18.2291 4.80261 18.2291H3.80652V22.3013ZM26.0721 22.3013V26.3736H27.0682H28.0643V22.3013V18.2291H27.0682H26.0721V22.3013Z" fill="#06268B"/>
</g>
</svg>
