<svg width="32" height="31" viewBox="0 0 32 31" fill="none" xmlns="http://www.w3.org/2000/svg">
<mask id="mask0_470_91" style="mask-type:luminance" maskUnits="userSpaceOnUse" x="1" y="0" width="31" height="31">
<path d="M31.0712 0.451965H1.07117V30.452H31.0712V0.451965Z" fill="white"/>
</mask>
<g mask="url(#mask0_470_91)">
<path fill-rule="evenodd" clip-rule="evenodd" d="M17.9169 0.534997C17.6985 0.632497 17.4463 0.897048 17.364 1.11495C17.2979 1.28974 17.2762 3.01292 17.338 3.17394C17.3922 3.31515 17.6886 3.44833 17.8554 3.40644C18.1217 3.33958 18.1495 3.24284 18.1805 2.27429L18.2098 1.36017L18.5496 1.37183C19.235 1.39533 19.906 1.86238 20.246 2.55273L20.4364 2.93933L20.4657 4.49347C20.4979 6.20388 20.4993 6.21056 20.8759 6.44652C21.0683 6.5671 21.1614 6.57618 22.3893 6.59376C23.5883 6.61087 23.6943 6.62072 23.6559 6.71095C23.4811 7.12187 23.4444 7.30626 23.4707 7.64464C23.5021 8.04958 23.7131 8.54781 23.9457 8.76636L24.0884 8.90042L23.8645 9.19632C23.5651 9.59183 23.4298 10.033 23.4705 10.4815C23.5057 10.8692 23.7235 11.37 23.9492 11.5821L24.0954 11.7194L23.9127 11.9274C23.6011 12.2823 23.4852 12.6097 23.4842 13.1375C23.483 13.7288 23.6707 14.1531 24.0993 14.528L24.3858 14.7786L24.2036 15.1462C24.0608 15.4342 24.0202 15.5945 24.016 15.8864L24.0106 16.259L23.747 16.126C22.6217 15.5582 20.9291 15.4121 19.6454 15.7718C19.3392 15.8576 19.036 15.9408 18.9716 15.9565C18.8253 15.9923 18.5388 15.5884 18.3438 15.0711L18.2112 14.7195L18.1812 9.76269C18.1491 4.45521 18.1623 4.66439 17.8554 4.58734C17.6886 4.54544 17.3922 4.67863 17.338 4.81984C17.318 4.87199 17.3016 5.36077 17.3016 5.90599C17.3016 6.78419 17.2907 6.89728 17.2059 6.89728C16.8582 6.89728 16.6091 7.05812 15.9156 7.73036C15.1335 8.48851 15.1007 8.50322 14.6451 8.30171C14.2177 8.11263 14.1965 8.05363 14.1936 7.04534C14.1919 6.46439 14.1644 6.09009 14.1126 5.94501C13.9875 5.59445 13.7362 5.31402 13.412 5.16302C13.1227 5.02831 13.0637 5.02345 11.7352 5.02415C10.1978 5.02491 10.0712 5.05081 9.70209 5.43993C9.38486 5.77427 9.33324 5.97794 9.32961 6.91005C9.32527 7.99831 9.28719 8.10894 8.85348 8.29363C8.6198 8.39312 8.47162 8.42312 8.35648 8.39423C8.26016 8.37009 7.92599 8.09025 7.54683 7.71618C7.18765 7.36181 6.80463 7.0389 6.6834 6.98827C6.38029 6.86165 5.90146 6.87495 5.58435 7.0188C5.25025 7.17033 3.70566 8.68579 3.46871 9.09454C3.27019 9.43691 3.23762 9.92118 3.38873 10.2829C3.43935 10.4042 3.76226 10.7872 4.11664 11.1464C4.48232 11.5171 4.77072 11.8605 4.79387 11.9527C4.82123 12.0617 4.79123 12.2194 4.70088 12.4421C4.51766 12.8935 4.40861 12.9324 3.32703 12.9324C2.37623 12.9324 2.17748 12.9818 1.84039 13.3016C1.45074 13.6713 1.42543 13.7957 1.42402 15.3513C1.42262 16.8543 1.43879 16.9535 1.74348 17.3149C2.0682 17.7 2.27439 17.7597 3.39887 17.7941C4.30953 17.822 4.41898 17.8364 4.51848 17.9422C4.64697 18.0788 4.82117 18.505 4.82117 18.6829C4.82117 18.7609 4.57426 19.0585 4.14728 19.495C3.77668 19.8739 3.43391 20.2786 3.38557 20.3942C3.27201 20.666 3.27312 21.197 3.38785 21.4743C3.49894 21.7429 5.22506 23.4972 5.53877 23.6603C5.87492 23.8351 6.2218 23.8616 6.58672 23.7405C6.84928 23.6532 7.01334 23.5262 7.57988 22.9717C8.33281 22.2347 8.41613 22.1995 8.89344 22.4166C9.29351 22.5986 9.30031 22.6198 9.33289 23.7764L9.36219 24.8172L9.53978 25.0697C9.63746 25.2086 9.84635 25.4019 10.004 25.4994L10.2905 25.6766H11.7307C13.303 25.6766 13.356 25.6668 13.7475 25.3037C14.1065 24.9706 14.1608 24.7739 14.1946 23.6844C14.2116 23.1365 14.2481 22.6531 14.2759 22.6102C14.3462 22.5012 14.8174 22.3074 15.0122 22.3074C15.1687 22.3074 15.1772 22.324 15.2734 22.8136C15.3281 23.092 15.4517 23.5243 15.548 23.7741C15.7372 24.2645 16.2485 25.1621 16.4064 25.2811C16.662 25.4735 17.1259 25.2623 17.1259 24.9535C17.1259 24.8822 16.9808 24.5832 16.8034 24.289C15.6043 22.2999 15.8642 19.7626 17.4367 18.1072C18.1508 17.3554 18.9364 16.8811 19.9091 16.6143C20.5729 16.4324 21.8122 16.4331 22.4872 16.6159C24.3949 17.1327 25.8403 18.6551 26.2486 20.5779C26.3114 20.8734 26.3287 21.2199 26.3103 21.8094C26.2873 22.5419 26.2641 22.6906 26.0929 23.1992C25.842 23.9451 25.4785 24.5551 24.9595 25.1014C23.8457 26.274 22.4372 26.8402 20.8803 26.7414C20.158 26.6955 19.5947 26.5377 18.8062 26.1601C18.2037 25.8717 18.1642 25.8609 18.0165 25.9438C17.9311 25.9918 17.8237 26.0978 17.7779 26.1794C17.7063 26.3068 17.7062 26.3522 17.7764 26.5002C17.8834 26.7256 18.999 27.2917 19.704 27.4783C20.3812 27.6576 21.97 27.6693 22.6044 27.4997C25.6023 26.6982 27.5435 23.958 27.2104 20.9979C27.0948 19.9708 26.7745 19.0724 26.2379 18.2709L25.9256 17.8042L27.1068 17.7853C28.2393 17.7672 28.3013 17.7601 28.6102 17.6133C29.2884 17.2912 29.6898 16.6719 29.6883 15.95C29.6877 15.6552 29.6514 15.4595 29.559 15.2541C29.4884 15.0969 29.4305 14.959 29.4305 14.9475C29.4305 14.936 29.5586 14.8617 29.7152 14.7824C30.0784 14.5983 30.5063 14.1234 30.6263 13.7713C30.7449 13.4233 30.7459 12.8547 30.6286 12.5103C30.5785 12.3633 30.4445 12.1343 30.3308 12.0015L30.1241 11.76L30.3344 11.4736C30.6143 11.0922 30.7197 10.7714 30.719 10.303C30.7184 9.87074 30.5386 9.39542 30.2688 9.11265L30.1184 8.95497L30.2937 8.73179C30.6004 8.34167 30.68 8.12792 30.7077 7.62103C30.7303 7.20472 30.7152 7.10347 30.5895 6.83001C30.3173 6.23781 29.9356 5.91161 29.3303 5.75394C29.0507 5.68111 28.367 5.66681 25.1702 5.66681H21.3446V4.36075C21.3446 3.37702 21.3225 2.96968 21.2549 2.71029C20.9823 1.66368 20.1329 0.814314 19.0863 0.541677C18.6663 0.432282 18.1535 0.429353 17.9169 0.534997ZM10.3794 6.01304C10.2461 6.12079 10.24 6.16169 10.2102 7.14097C10.1764 8.25191 10.1251 8.44046 9.76308 8.78359C9.53375 9.00097 8.95625 9.25503 8.61746 9.28755C8.06316 9.34081 7.85182 9.22902 7.06795 8.46782C6.10607 7.53372 6.22226 7.52183 5.0723 8.67185C3.92252 9.82158 3.93447 9.7055 4.86699 10.6675C5.5983 11.4219 5.70008 11.598 5.70008 12.1084C5.70008 12.4397 5.39351 13.1597 5.15691 13.3843C4.77945 13.7424 4.65043 13.7764 3.54142 13.8099C2.20074 13.8504 2.30164 13.7261 2.30164 15.338C2.30164 16.5436 2.3034 16.5607 2.44291 16.7231L2.58424 16.8875L3.60014 16.9168C4.57771 16.945 4.62646 16.9522 4.8906 17.1075C5.22336 17.3031 5.36416 17.4919 5.55471 17.998C5.72855 18.4601 5.73851 18.848 5.585 19.1861C5.52166 19.3257 5.18973 19.7264 4.82457 20.104C3.95105 21.0075 3.94361 20.9198 4.9823 21.9704C5.42545 22.4186 5.83959 22.8135 5.90269 22.848C6.18676 23.0029 6.32668 22.9269 7.0485 22.226C7.66133 21.6309 7.78226 21.5399 8.0716 21.4558C8.48416 21.3358 8.76025 21.3763 9.30992 21.6373C10.0567 21.9919 10.2118 22.3388 10.2118 23.6542C10.2118 24.5021 10.2139 24.5155 10.3629 24.6556C10.5099 24.7938 10.5436 24.7982 11.608 24.8172C12.3171 24.8298 12.781 24.8131 12.9263 24.7695C13.2624 24.6689 13.317 24.4833 13.3186 23.4372C13.32 22.4627 13.377 22.2547 13.7364 21.9132C13.9534 21.707 14.5171 21.4535 14.892 21.3936C15.1225 21.3568 15.1295 21.3488 15.1616 21.0845C15.3254 19.7342 15.7752 18.6638 16.5802 17.7078C16.8862 17.3444 17.547 16.7593 17.9386 16.5048L18.0767 16.4151L17.8958 16.147C17.7962 15.9996 17.6591 15.7499 17.5909 15.5922C17.3172 14.959 17.3037 14.7516 17.3026 11.16C17.3019 8.77017 17.283 7.77618 17.2382 7.77618C17.2033 7.77618 16.8731 8.06775 16.5045 8.42411C15.7662 9.13796 15.4989 9.2964 15.03 9.29833C14.6819 9.2998 14.1221 9.09812 13.8068 8.85765C13.4153 8.559 13.3501 8.33827 13.3173 7.19974L13.288 6.1839L13.1236 6.04251C12.9612 5.90288 12.9443 5.90118 11.7385 5.90118C10.6246 5.90118 10.5056 5.91097 10.3794 6.01304ZM24.7988 6.73632C24.1965 7.14226 24.2347 8.04302 24.868 8.36605C25.0876 8.47814 25.194 8.48283 27.1723 8.46677C29.1619 8.45072 29.2529 8.44509 29.408 8.32919C29.6735 8.13091 29.7968 7.91904 29.8265 7.61042C29.862 7.24152 29.6895 6.907 29.3717 6.72841C29.1584 6.60847 29.0809 6.60431 27.0728 6.60431C25.0139 6.60431 24.9929 6.60554 24.7988 6.73632ZM25.0175 9.4413C24.7181 9.55046 24.5728 9.68874 24.4362 9.99408C24.2352 10.4434 24.429 10.9517 24.8854 11.1726C25.1323 11.2922 25.2073 11.2956 27.1877 11.2793L29.2348 11.2625L29.456 11.0936C29.9902 10.6861 29.9554 9.87771 29.3884 9.52527C29.1687 9.38863 29.1511 9.3874 27.204 9.37363C25.6457 9.36255 25.195 9.3765 25.0175 9.4413ZM11.1587 10.7686C9.86023 10.9265 8.60756 11.7174 7.87267 12.8431C7.55779 13.3255 7.2616 14.0685 7.26975 14.3556C7.27637 14.5879 7.46018 14.7488 7.71898 14.7488C7.96584 14.7488 8.05859 14.636 8.2373 14.1181C8.56771 13.1609 9.28092 12.3827 10.228 11.9461C10.6564 11.7486 11.1832 11.6452 11.7657 11.6443C12.7901 11.6426 13.6188 11.9939 14.3775 12.7517C15.991 14.3631 15.7775 17.038 13.9303 18.3561C12.9132 19.0819 11.7001 19.2614 10.5315 18.8591C9.4301 18.48 8.65332 17.6985 8.21791 16.5314C8.04476 16.0673 7.99666 16.0047 7.7651 15.943C7.60514 15.9004 7.35353 16.0516 7.28762 16.2298C7.1317 16.6513 7.86693 18.0526 8.59139 18.7147C9.45728 19.5061 10.3527 19.8847 11.5036 19.9462C14.2362 20.092 16.4993 17.8425 16.3466 15.1321C16.3047 14.3895 16.1963 13.9769 15.8687 13.3133C14.9899 11.5332 13.1308 10.5287 11.1587 10.7686ZM25.0122 12.2317C24.594 12.3568 24.2848 12.8804 24.3679 13.3231C24.4204 13.6029 24.7547 13.9685 25.0271 14.0443C25.152 14.0789 26.0345 14.1033 27.1454 14.1027C29.2776 14.1016 29.3874 14.0835 29.6707 13.6864C29.8705 13.4062 29.8705 12.8689 29.6707 12.5887C29.3861 12.1896 29.2819 12.1728 27.1161 12.177C26.0526 12.1791 25.1059 12.2037 25.0122 12.2317ZM11.012 12.9858C10.0067 13.318 9.35357 14.1508 9.28924 15.1822C9.23873 15.9913 9.47451 16.5873 10.0665 17.1471C11.0402 18.068 12.5459 18.0453 13.4959 17.0954C14.713 15.8782 14.3356 13.8366 12.7566 13.0978C12.2468 12.8591 11.5334 12.8134 11.012 12.9858ZM11.2176 13.861C10.5628 14.0945 10.1112 14.7822 10.1701 15.4557C10.2452 16.3128 10.8893 16.9134 11.7352 16.9149C12.8489 16.917 13.5908 15.8656 13.2277 14.7999C12.9586 14.0101 12.0236 13.5734 11.2176 13.861ZM25.5048 15.0474C24.7769 15.3458 24.7074 16.3674 25.3878 16.7672C25.5773 16.8785 25.6872 16.8875 26.8524 16.8875C28.0177 16.8875 28.1275 16.8785 28.3171 16.7672C28.9354 16.4039 28.9556 15.579 28.3571 15.1351C28.2027 15.0206 28.108 15.0117 26.9216 15C26.1582 14.9924 25.5928 15.0113 25.5048 15.0474ZM29.0651 18.9421C28.8344 19.0673 28.8189 19.228 28.972 19.9119C29.088 20.4298 29.1082 20.6816 29.1076 21.6043C29.1068 22.7871 29.0414 23.2241 28.7259 24.1576C27.4492 27.9346 23.5363 30.1902 19.6388 29.3959C18.0937 29.081 16.8406 28.4195 15.6325 27.2806C15.2578 26.9273 14.971 26.702 14.896 26.702C14.7413 26.702 14.4305 27.0069 14.4305 27.1585C14.4305 27.332 14.8439 27.8143 15.3825 28.2695C16.6302 29.3239 17.8866 29.9435 19.4696 30.2853C20.3448 30.4742 22.0958 30.4762 22.9418 30.2891C26.4587 29.5115 29.0963 26.9042 29.8474 23.4629C30.0857 22.3709 30.095 20.9228 29.8706 19.8447C29.7304 19.1715 29.6718 19.0327 29.4871 18.9373C29.2838 18.8321 29.2675 18.8323 29.0651 18.9421ZM23.7001 19.5389C23.635 19.5952 22.9566 20.3533 22.1927 21.2234C21.4288 22.0936 20.7455 22.8662 20.6742 22.9405L20.5446 23.0755L19.621 22.0218C19.1129 21.4424 18.658 20.9532 18.6099 20.9347C18.2982 20.8151 18.0048 21.0079 18.0048 21.3323C18.0048 21.5041 18.1473 21.6921 19.1263 22.8118C19.7432 23.5173 20.2771 24.1139 20.3128 24.1376C20.3486 24.1613 20.4579 24.181 20.5558 24.1816C20.7706 24.1826 20.836 24.1173 22.4032 22.3367C23.0272 21.6277 23.7298 20.8306 23.9646 20.5654C24.3188 20.1652 24.3915 20.0488 24.3915 19.8812C24.3915 19.5216 23.9643 19.3101 23.7001 19.5389Z" fill="#06268B"/>
</g>
</svg>
