<svg width="30" height="32" viewBox="0 0 30 32" fill="none" xmlns="http://www.w3.org/2000/svg">
<g clip-path="url(#clip0_470_41)">
<mask id="mask0_470_41" style="mask-type:luminance" maskUnits="userSpaceOnUse" x="0" y="1" width="30" height="31">
<path d="M30 1.13672H0V31.1367H30V1.13672Z" fill="white"/>
</mask>
<g mask="url(#mask0_470_41)">
<path fill-rule="evenodd" clip-rule="evenodd" d="M14.0645 1.26665C13.4422 1.50553 12.8906 2.26051 12.8906 2.87323C12.8906 3.01672 12.8679 3.07151 12.8173 3.0503C12.7771 3.03342 12.601 2.97524 12.426 2.92104C11.5991 2.66469 10.664 3.08036 10.2721 3.8784L10.1074 4.21379L10.0899 6.21067C10.0733 8.10659 10.0781 8.21458 10.1849 8.34641C10.3401 8.53801 10.6935 8.53983 10.8474 8.34987C10.9493 8.22401 10.957 8.08491 10.957 6.37338C10.957 4.33702 10.9648 4.28551 11.3223 3.97168C11.5658 3.75782 11.8645 3.68739 12.174 3.77071C12.422 3.8375 12.7334 4.12684 12.8284 4.37874C12.8705 4.49036 12.8906 6.16291 12.8906 9.55233V14.5609L13.0344 14.7047C13.2177 14.8881 13.4424 14.8881 13.6256 14.7047L13.7695 14.5609V8.67881V2.7967L13.9044 2.54153C14.0574 2.25219 14.4308 2.01653 14.7363 2.01653C15.0417 2.01653 15.4151 2.25219 15.5681 2.54153L15.7031 2.7967V8.98737C15.7031 15.1364 15.7039 15.1789 15.8226 15.3062C15.9798 15.475 16.3099 15.4798 16.4507 15.3154C16.5456 15.2046 16.5547 14.8085 16.582 9.60682C16.6111 4.04991 16.612 4.01627 16.7339 3.85186C17.1651 3.27002 17.9325 3.27002 18.3637 3.8518C18.4843 4.01452 18.4868 4.07768 18.5156 7.73159C18.5483 11.879 18.5226 11.6493 18.955 11.6493C19.3745 11.6493 19.3618 11.7246 19.3945 9.05575L19.4238 6.66542L19.588 6.45026C19.8019 6.16989 20.0254 6.0595 20.379 6.0595C20.7469 6.0595 21.0192 6.23458 21.1962 6.58508L21.3281 6.84606L21.3278 11.9459C21.3277 14.8246 21.3017 17.4031 21.268 17.8661C21.0451 20.9336 20.453 23.4618 19.6285 24.867C19.5052 25.077 19.2307 25.441 19.0185 25.6757C18.2551 26.5201 18.164 26.8541 18.164 28.8062V30.2587H14.4772H10.7905L10.7678 28.5448C10.7468 26.9461 10.7361 26.8034 10.6099 26.4208C10.4037 25.7957 10.0653 25.1679 9.65902 24.6566C9.22495 24.1103 8.7354 23.3831 8.35636 22.7213C8.03714 22.1641 7.86072 22.0458 7.57167 22.1953C7.20218 22.3864 7.23417 22.5863 7.77986 23.4945C8.23894 24.2585 8.5356 24.6866 9.01531 25.2772C9.1588 25.4539 9.37759 25.8099 9.50152 26.0682C9.86093 26.8178 9.90013 27.1155 9.9013 29.1041L9.9023 30.85L10.0461 30.9938L10.1899 31.1376H14.489H18.7881L18.9117 31.0058C19.0311 30.8785 19.036 30.8117 19.0538 29.0575L19.0722 27.2411L19.2283 26.9081C19.3142 26.725 19.5391 26.4086 19.7282 26.205C20.8123 25.0377 21.5688 22.893 21.9669 19.8583C22.1913 18.1476 22.2151 17.3103 22.196 11.8017L22.1777 6.49895L22.0422 6.22397C21.8531 5.84006 21.4924 5.48868 21.1055 5.31155C20.6746 5.11426 20.0825 5.10331 19.6728 5.28495L19.3945 5.4084V4.74846C19.3945 3.96038 19.3076 3.6251 18.9977 3.2177C18.8367 3.006 18.6642 2.86831 18.376 2.72129C18.029 2.54428 17.9227 2.51803 17.5579 2.51956C17.262 2.52079 17.0589 2.55717 16.8676 2.64325L16.5966 2.76518L16.5256 2.52272C16.2098 1.44383 15.0907 0.87272 14.0645 1.26665ZM3.39839 2.54475C1.61773 3.34168 1.71681 3.2879 1.64368 3.4976C1.58808 3.65715 1.6745 3.8852 2.61195 6.05264C3.17808 7.36163 3.69499 8.47866 3.76068 8.53508C3.93435 8.6842 4.08054 8.66124 4.55234 8.41075L4.97386 8.18698L5.71671 9.30588C6.12529 9.92124 6.5137 10.4841 6.57986 10.5566C6.73407 10.7257 7.04521 10.733 7.20698 10.5712C7.31656 10.4617 7.32376 10.3806 7.31779 9.3261C7.31427 8.70571 7.29452 7.45092 7.27384 6.53762C7.23646 4.88405 7.2357 4.87661 7.09794 4.76516C6.89714 4.60268 6.72781 4.62506 6.16636 4.88815C5.89062 5.01735 5.65296 5.11098 5.6382 5.09622C5.62343 5.08145 5.57304 4.4286 5.52616 3.64549C5.45562 2.467 5.42298 2.19635 5.33667 2.07512C5.14226 1.80196 4.95857 1.84643 3.39839 2.54475ZM25.2094 2.85149C25.0248 3.04872 23.2422 6.75922 23.2422 6.94631C23.2422 7.17512 23.3431 7.27063 23.737 7.41424C23.9267 7.48344 24.082 7.56952 24.082 7.60549C24.082 7.64153 23.9501 8.13231 23.789 8.69622C23.6279 9.26012 23.496 9.80528 23.496 9.9077C23.496 10.1233 23.7192 10.3368 23.9446 10.3368C24.0443 10.3368 24.552 9.92182 25.7093 8.89444C26.6028 8.10114 27.3932 7.38776 27.4658 7.30919C27.6272 7.13417 27.641 6.82004 27.4931 6.68616C27.4356 6.63418 27.2312 6.52215 27.039 6.43731C26.8467 6.35247 26.6775 6.27137 26.6629 6.25708C26.6483 6.24278 27.0285 5.83842 27.5077 5.35848C28.245 4.61991 28.3788 4.4586 28.3788 4.30895C28.3788 4.21174 28.3474 4.09432 28.3091 4.04809C28.2067 3.92469 25.6316 2.71965 25.4702 2.71965C25.3947 2.71965 25.2774 2.77895 25.2094 2.85149ZM3.63277 3.4236C3.13325 3.64702 2.70493 3.83709 2.68091 3.846C2.64148 3.86065 4.16228 7.42889 4.24179 7.5084C4.26019 7.52674 4.43099 7.45877 4.62136 7.35729C5.03392 7.13739 5.26577 7.12227 5.43113 7.30461C5.49687 7.37709 5.74091 7.72215 5.97341 8.07137C6.20585 8.42059 6.40056 8.69745 6.40601 8.68661C6.4499 8.59965 6.37109 5.82512 6.32474 5.82512C6.29292 5.82512 6.05714 5.93059 5.80073 6.0595C5.27972 6.32147 5.1146 6.34456 4.91538 6.18325C4.78396 6.07684 4.77575 6.02065 4.70005 4.70375C4.65675 3.95088 4.60325 3.26346 4.58116 3.17616L4.54097 3.01743L3.63277 3.4236ZM25.004 5.19553C24.6249 5.97688 24.3151 6.63377 24.3155 6.6554C24.316 6.67696 24.4482 6.73842 24.6093 6.79192C24.929 6.89809 25.0781 7.05694 25.0781 7.29137C25.0781 7.37446 25.0127 7.66526 24.9328 7.93749C24.853 8.20977 24.787 8.45317 24.7863 8.47842C24.7856 8.50362 25.1279 8.21633 25.5468 7.83993C25.9658 7.46358 26.3085 7.13891 26.3085 7.11852C26.3085 7.09807 26.1718 7.02946 26.0047 6.96594C25.5739 6.80229 25.3714 6.61907 25.3695 6.3912C25.3681 6.22866 25.4756 6.10145 26.2484 5.35163C26.7326 4.88176 27.1289 4.48198 27.1289 4.46329C27.1289 4.42907 25.7985 3.77411 25.7301 3.77463C25.7098 3.77481 25.3831 4.41418 25.004 5.19553ZM10.1976 9.5276C10.0801 9.6537 10.0781 9.71446 10.0781 13.1618V16.6679L9.92779 16.725C9.72488 16.8021 9.2795 16.7973 9.12206 16.7162C8.86413 16.5834 8.70605 16.3785 7.99249 15.252C7.039 13.7469 6.71193 13.4325 5.83402 13.1773C5.40323 13.052 4.57654 13.0784 4.29499 13.2265C4.02511 13.3684 3.79888 13.6929 3.76642 13.9847C3.74439 14.183 3.80632 14.4231 4.0721 15.1708C4.94515 17.6268 6.4687 21.207 6.72148 21.3964C6.86491 21.5039 7.05324 21.486 7.22837 21.3482C7.45613 21.1691 7.42847 20.9393 7.09366 20.2295C6.46056 18.8874 5.53103 16.5956 4.86019 14.7229L4.63302 14.0887L4.75782 14.022C4.93208 13.9287 5.5465 13.9879 5.8629 14.1286C6.00599 14.1921 6.20562 14.3139 6.30657 14.3993C6.40753 14.4846 6.85033 15.1202 7.29054 15.8117C7.7307 16.5032 8.17548 17.1405 8.27884 17.2279C8.3822 17.3153 8.61177 17.4542 8.78902 17.5365C9.42634 17.8326 10.3335 17.6905 10.7959 17.2223L10.957 17.0591V13.3575C10.957 9.71323 10.9551 9.65381 10.8375 9.5276C10.7596 9.44393 10.6484 9.39934 10.5175 9.39934C10.3867 9.39934 10.2755 9.44393 10.1976 9.5276ZM18.6351 12.6917C18.5213 12.8137 18.5156 12.8914 18.5156 14.3056V15.7914L18.6594 15.9352C18.7385 16.0143 18.8715 16.079 18.955 16.079C19.0385 16.079 19.1715 16.0143 19.2506 15.9352L19.3945 15.7914V14.3048C19.3945 12.8267 19.3937 12.8175 19.2589 12.6908C19.0805 12.5232 18.7916 12.5236 18.6351 12.6917Z" fill="#06268B"/>
</g>
</g>
<defs>
<clipPath id="clip0_470_41">
<rect width="30" height="31" fill="white" transform="translate(0 0.5)"/>
</clipPath>
</defs>
</svg>
