<svg width="31" height="31" viewBox="0 0 31 31" fill="none" xmlns="http://www.w3.org/2000/svg">
<g clip-path="url(#clip0_6_6)">
<path fill-rule="evenodd" clip-rule="evenodd" d="M4.25611 4.52652C2.62557 4.95355 1.42059 6.22662 1.10986 7.85055C0.986816 8.49355 0.986816 21.648 1.10986 22.291C1.39838 23.799 2.49256 25.0373 3.98588 25.5459L4.45463 25.7055L15.3238 25.7219C27.5333 25.7402 26.6114 25.7722 27.5992 25.2955C28.8912 24.6719 29.7627 23.4647 29.9703 22.0113C30.0177 21.6788 30.0315 19.598 30.0184 14.7485C29.998 7.18973 30.0274 7.74191 29.5977 6.83834C29.0445 5.67525 28.0335 4.8448 26.7807 4.52436C26.328 4.40857 26.149 4.40676 15.5048 4.40992C5.00424 4.41309 4.67641 4.41648 4.25611 4.52652ZM4.46998 6.10252C3.59137 6.38336 2.87629 7.15598 2.67109 8.04607C2.63295 8.21131 2.61127 10.7216 2.61033 15.0731C2.6091 21.0057 2.62018 21.8862 2.69986 22.1922C2.86451 22.8245 3.26535 23.3648 3.85234 23.7456C4.53631 24.1894 3.65945 24.16 15.6753 24.1407L26.4273 24.1235L26.752 23.992C27.4101 23.7256 27.9969 23.119 28.2837 22.409L28.4195 22.0727L28.4353 15.247C28.446 10.635 28.4311 8.32475 28.3895 8.124C28.1944 7.18428 27.5121 6.42203 26.5871 6.11043C26.2265 5.98896 26.2069 5.98873 15.5161 5.99189C5.29481 5.99488 4.79084 5.99992 4.46998 6.10252ZM5.04057 9.23271C4.73559 9.37129 4.63041 9.53969 4.63041 9.88967C4.63041 10.1978 4.63809 10.2119 5.01127 10.5921C5.49303 11.083 6.89728 12.3733 8.55619 13.8494C9.26518 14.4802 9.89102 15.0477 9.94703 15.1105C10.0458 15.2213 9.97973 15.2935 7.70014 17.5645C6.40844 18.8513 5.32773 19.9487 5.29861 20.0032C5.26949 20.0576 5.24564 20.1988 5.24564 20.3169C5.24564 20.4831 5.29076 20.5768 5.44486 20.7309C5.66834 20.9544 5.85285 20.9828 6.13475 20.837C6.23383 20.7858 7.0433 20.0276 7.93357 19.1523C8.82385 18.277 9.88732 17.2337 10.2968 16.834L11.0413 16.1072L11.2929 16.3186C11.4313 16.4348 11.8213 16.7698 12.1597 17.0629C13.1087 17.8852 13.8544 18.2151 15.0701 18.3507C16.1638 18.4728 17.2911 18.1672 18.312 17.472C18.4893 17.3513 18.918 16.999 19.2647 16.689C19.6114 16.379 19.9146 16.1258 19.9386 16.1262C19.9624 16.1266 21.0498 17.1718 22.355 18.4487C23.7296 19.7937 24.8103 20.8053 24.9235 20.8533C25.432 21.0684 25.955 20.4787 25.6919 19.987C25.658 19.9237 24.5766 18.8271 23.2888 17.55C21.0021 15.2824 20.9498 15.2253 21.0506 15.1118C21.1074 15.0478 21.7339 14.48 22.4429 13.8499C23.9209 12.5364 25.5804 11.0093 26.0362 10.5432C26.2785 10.2955 26.3553 10.1719 26.3796 9.99092C26.4152 9.72561 26.2991 9.4477 26.0923 9.30285C25.8762 9.15139 25.457 9.18473 25.2156 9.37252C25.1017 9.46117 23.5611 10.8392 21.7921 12.4349C17.7007 16.1255 17.5485 16.257 17.086 16.4995C16.4903 16.8117 16.0489 16.9047 15.3238 16.8707C14.3558 16.8253 13.864 16.5994 12.9112 15.7628C12.6429 15.5273 10.9763 14.0294 9.2077 12.4341C7.4391 10.8388 5.89662 9.46158 5.77996 9.37346C5.51775 9.17535 5.27037 9.12824 5.04057 9.23271Z" fill="#06268B"/>
</g>
<defs>
<clipPath id="clip0_6_6">
<rect width="30" height="31" fill="white" transform="translate(0.5)"/>
</clipPath>
</defs>
</svg>
