<svg width="31" height="31" viewBox="0 0 31 31" fill="none" xmlns="http://www.w3.org/2000/svg">
<g clip-path="url(#clip0_6_8)">
<mask id="mask0_6_8" style="mask-type:luminance" maskUnits="userSpaceOnUse" x="0" y="0" width="31" height="31">
<path d="M30.5 0.0712891H0.5V30.0713H30.5V0.0712891Z" fill="white"/>
</mask>
<g mask="url(#mask0_6_8)">
<path fill-rule="evenodd" clip-rule="evenodd" d="M16.6507 0.187732C16.1125 0.515799 16.0896 1.28982 16.608 1.62943C16.692 1.68451 17.0954 1.80521 17.5043 1.89767C20.3015 2.53002 22.5416 3.734 24.5666 5.69332C26.6412 7.70045 28.1467 10.4563 28.6493 13.1665C28.7487 13.7027 28.8401 13.9113 29.0542 14.0915C29.4752 14.4457 30.1084 14.3049 30.3513 13.8032L30.4794 13.5387L30.3514 12.8965C29.7217 9.73576 28.231 6.94558 25.9433 4.64543C23.6804 2.37029 20.988 0.89156 17.877 0.215154C17.0743 0.0406618 16.8983 0.0367359 16.6507 0.187732ZM5.85528 1.83339C5.48503 1.87822 5.04071 2.03877 4.63975 2.27267C4.32716 2.45496 2.45292 4.27212 1.74446 5.07966C1.18677 5.71541 0.809305 6.41373 0.63077 7.14005C0.467762 7.80339 0.455223 9.1306 0.603992 9.97318C1.50458 15.0739 5.89583 21.4551 11.2752 25.4804C13.5509 27.1833 16.2609 28.6574 18.4652 29.3915C19.944 29.884 20.8074 30.0388 22.0565 30.0356C22.9064 30.0333 23.0432 30.0182 23.5213 29.8728C24.1093 29.694 24.6677 29.409 25.0936 29.0701C25.2494 28.9461 25.9787 28.2255 26.7143 27.4688C27.9079 26.2409 28.0769 26.0427 28.285 25.6269C28.7355 24.7269 28.7439 23.9273 28.3121 23.0396C28.1124 22.6288 27.9547 22.4562 25.8977 20.3949C23.834 18.3269 23.6697 18.1764 23.2576 17.9763C22.4205 17.5698 21.6097 17.5725 20.7861 17.9845C20.445 18.1551 20.153 18.4019 19.1008 19.4089L17.828 20.6269L17.2075 20.2881C14.6285 18.8806 11.4847 15.7097 10.1016 13.1211L9.84552 12.6418L10.9756 11.4979C12.4771 9.9781 12.7471 9.55494 12.8124 8.61908C12.8509 8.06783 12.7642 7.67337 12.4855 7.13138C12.3074 6.78504 12.0509 6.49377 10.8374 5.25966C8.08653 2.46211 7.72237 2.14593 6.99786 1.92556C6.62731 1.81289 6.26567 1.78371 5.85528 1.83339ZM5.70206 3.67406C5.48942 3.78005 5.04569 4.18734 4.0902 5.15355C2.32243 6.94113 2.25018 7.07672 2.25434 8.59623C2.25663 9.4098 2.27848 9.62549 2.4197 10.2279C2.99016 12.661 4.48149 15.6298 6.41251 18.1763C9.35444 22.056 12.7092 24.8529 16.783 26.8223C18.7375 27.7671 20.2412 28.2313 21.7056 28.3418C22.4292 28.3964 22.9458 28.3053 23.5213 28.0217C23.9547 27.8082 24.0898 27.69 25.3118 26.4552C26.2081 25.5496 26.6749 25.0335 26.762 24.8521C26.9126 24.5383 26.9267 24.1775 26.7999 23.8727C26.6874 23.6023 22.8045 19.6863 22.4836 19.5197C22.2213 19.3835 21.8659 19.3747 21.5728 19.4971C21.4355 19.5545 20.8747 20.0664 20.0359 20.9C18.2061 22.7184 18.1669 22.7323 16.8256 22.0363C15.0734 21.1272 13.5428 19.9551 11.89 18.257C10.2783 16.6011 9.15681 15.1096 8.46868 13.7069C8.07024 12.8947 7.99149 12.5778 8.08741 12.173C8.15315 11.8958 8.24526 11.7885 9.57323 10.4419C10.7356 9.26326 11.0015 8.9632 11.0588 8.76521C11.2507 8.1031 11.1999 8.03121 8.94241 5.76703C6.91097 3.72966 6.66446 3.52787 6.20684 3.52787C6.09059 3.52787 5.86343 3.59367 5.70206 3.67406ZM16.4868 5.57625C16.4206 5.60308 16.2822 5.72097 16.1792 5.83822C16.0182 6.02162 15.992 6.09568 15.992 6.3672C15.992 6.62232 16.0215 6.71795 16.1455 6.86531C16.3469 7.10472 16.5117 7.18283 17.076 7.30646C18.5818 7.63634 19.9012 8.36783 21.0345 9.50103C22.1963 10.6629 22.8783 11.934 23.2822 13.6906C23.4142 14.2647 23.7072 14.5437 24.1775 14.5432C24.5992 14.5428 25.0147 14.1452 25.0152 13.7416C25.0156 13.4499 24.855 12.7582 24.6323 12.0929C23.5564 8.87771 20.8434 6.41121 17.5278 5.6339C17.0154 5.51379 16.6861 5.49556 16.4868 5.57625Z" fill="#06268B"/>
</g>
</g>
<defs>
<clipPath id="clip0_6_8">
<rect width="30" height="31" fill="white" transform="translate(0.5)"/>
</clipPath>
</defs>
</svg>
