<svg width="31" height="31" viewBox="0 0 31 31" fill="none" xmlns="http://www.w3.org/2000/svg">
<path fill-rule="evenodd" clip-rule="evenodd" d="M14.5062 1.68794C14.4256 1.70212 14.2015 1.74108 14.0081 1.7746C11.485 2.21165 9.16929 3.95628 7.9857 6.31192C7.35898 7.55927 7.10579 8.6214 7.09882 10.0326C7.09378 11.0567 7.14722 11.4277 7.45085 12.4776C8.21902 15.1339 10.4691 18.9667 13.6061 22.9624C14.9104 24.6237 15.0339 24.7391 15.5083 24.7394C15.9744 24.7398 16.1459 24.5733 17.5897 22.7182C19.1134 20.7603 20.6236 18.5372 21.6102 16.7996C22.74 14.81 23.3814 13.2919 23.7422 11.7543C23.8879 11.1334 23.9054 10.9502 23.9037 10.0619C23.9023 9.26429 23.8764 8.94688 23.774 8.46888C23.214 5.85577 21.5503 3.68411 19.2094 2.51071C18.0372 1.92307 17.1435 1.71196 15.7074 1.68325C15.1273 1.67171 14.5868 1.67376 14.5062 1.68794ZM14.35 3.6155C11.9294 4.05472 9.90347 5.89421 9.21177 8.28102C8.6774 10.1251 8.94599 11.7709 10.2005 14.3393C11.1263 16.2345 12.6737 18.6512 14.472 21.0103C14.8614 21.5212 15.2459 22.0281 15.3265 22.1367C15.4071 22.2454 15.4862 22.3335 15.5023 22.3325C15.5184 22.3315 15.6256 22.2069 15.7405 22.0557C15.8555 21.9044 16.2403 21.3984 16.5956 20.9311C18.3516 18.6218 20.0828 15.8945 20.9099 14.1342C21.8579 12.1165 22.1799 10.7148 22.0083 9.35177C21.6413 6.43573 19.4615 4.10944 16.6341 3.61638C16.03 3.51102 14.9281 3.51061 14.35 3.6155ZM14.6424 6.75085C14.1429 6.88175 13.9537 6.97315 13.4639 7.31991C12.6173 7.91938 12.0859 8.96165 12.0809 10.0326C12.0763 10.9977 12.3996 11.7934 13.0698 12.4672C14.4395 13.844 16.5651 13.844 17.9347 12.4672C18.605 11.7934 18.9283 10.9977 18.9237 10.0326C18.9133 7.82558 16.7802 6.19052 14.6424 6.75085ZM15.0918 8.5604C13.9932 8.92087 13.6067 10.1528 14.3049 11.0682C14.6373 11.504 15.3631 11.7209 15.9539 11.561C16.7585 11.3433 17.2515 10.3635 16.9711 9.5395C16.873 9.2511 16.4885 8.8294 16.1804 8.67226C15.9252 8.542 15.3331 8.48124 15.0918 8.5604ZM8.52962 20.1451C7.14206 20.6251 5.98958 21.2896 5.3679 21.968C4.34872 23.0803 4.31175 24.4018 5.26724 25.5688C6.2866 26.8139 8.84369 27.8328 12.0745 28.2815C14.2023 28.577 16.958 28.5647 19.1644 28.25C23.3768 27.6492 26.0492 26.1505 26.4056 24.1892C26.5913 23.1673 25.9712 22.038 24.7944 21.255C23.8328 20.6151 22.049 19.8886 21.6318 19.9669C20.9854 20.0882 20.651 20.732 20.9294 21.3189C21.0593 21.5926 21.2387 21.7057 21.889 21.9238C23.1734 22.3548 24.2857 23.0581 24.49 23.5687C24.6305 23.92 24.5457 24.1254 24.0803 24.5608C23.0412 25.5327 20.5304 26.2958 17.5238 26.5533C16.6191 26.6307 14.3855 26.6307 13.4808 26.5533C10.4742 26.2958 7.96337 25.5327 6.92427 24.5608C6.45886 24.1254 6.37402 23.92 6.51458 23.5687C6.71937 23.057 7.82591 22.3588 9.10642 21.9334C9.74433 21.7214 9.94425 21.5946 10.0752 21.3189C10.2871 20.8721 10.1355 20.3373 9.73062 20.1037C9.39429 19.9097 9.18968 19.9168 8.52962 20.1451Z" fill="#06268B"/>
</svg>
