<svg width="32" height="31" viewBox="0 0 32 31" fill="none" xmlns="http://www.w3.org/2000/svg">
<path fill-rule="evenodd" clip-rule="evenodd" d="M16.025 4.31448C13.1279 4.57042 10.2392 6.03046 8.33711 8.20024C7.34794 9.32858 6.41917 10.9423 5.97409 12.3058C5.85842 12.6603 5.69465 13.3063 5.61016 13.7414C5.52573 14.1764 5.44774 14.5439 5.4369 14.558C5.42606 14.5721 5.02686 14.1964 4.54973 13.723C3.70733 12.8874 3.6751 12.8625 3.43469 12.8625C3.10622 12.8625 2.8784 12.9885 2.76145 13.235C2.64356 13.4834 2.63963 13.698 2.7492 13.9054C2.89264 14.177 5.72465 16.9517 5.90336 16.9957C6.33151 17.1013 6.41665 17.04 7.92555 15.5395C9.49475 13.979 9.6444 13.7781 9.5278 13.389C9.39754 12.9544 8.89821 12.7287 8.50651 12.9274C8.43614 12.9631 8.05733 13.3103 7.66475 13.699L6.9509 14.4055L7.06862 13.8538C8.07848 9.12028 12.2833 5.70608 17.0921 5.71505C20.4347 5.72132 23.664 7.41743 25.5125 10.1379C26.2836 11.2726 26.684 12.1497 27.0109 13.4191C27.2825 14.4742 27.3568 15.2053 27.3146 16.4074C27.2452 18.3807 26.7142 19.9994 25.5619 21.7504C25.0063 22.5949 23.7497 23.8588 22.9092 24.4189C21.7734 25.1757 20.8172 25.6015 19.5159 25.9302C18.6005 26.1614 17.7551 26.2435 16.6989 26.204C13.3899 26.0801 10.3668 24.3856 8.57958 21.6532C8.00448 20.774 7.96077 20.7244 7.69797 20.6536C7.26655 20.5374 6.81708 20.8851 6.80501 21.3442C6.79803 21.6099 7.12358 22.1913 7.75897 23.0478C8.26147 23.7252 9.4804 24.9244 10.1756 25.4253C13.3155 27.6879 17.2524 28.2819 20.8942 27.0426C23.8557 26.0347 26.2881 23.8577 27.6514 20.9949C28.3983 19.4266 28.7137 18.1355 28.7795 16.3781C28.955 11.6892 26.317 7.38157 22.0309 5.35774C20.2261 4.50556 18.0807 4.1329 16.025 4.31448ZM16.7207 10.0315C16.3696 10.2494 16.3766 10.1824 16.3766 13.2992C16.3766 15.6581 16.3911 16.1768 16.4604 16.3078C16.5065 16.3948 17.6073 17.5247 18.9067 18.8187C21.3899 21.2916 21.4056 21.3044 21.8233 21.2126C21.9187 21.1917 22.0769 21.0832 22.1749 20.9716C22.3193 20.8071 22.3531 20.7163 22.3531 20.494V20.2195L20.0973 17.9609L17.8414 15.7023V13.1379C17.8414 10.3554 17.8367 10.3102 17.5183 10.0598C17.3226 9.90591 16.9447 9.89243 16.7207 10.0315Z" fill="#06268B"/>
</svg>
