<svg width="31" height="32" viewBox="0 0 31 32" fill="none" xmlns="http://www.w3.org/2000/svg">
<mask id="mask0_470_47" style="mask-type:luminance" maskUnits="userSpaceOnUse" x="0" y="1" width="31" height="31">
<path d="M30.8147 1.0603H0.814697V31.0603H30.8147V1.0603Z" fill="white"/>
</mask>
<g mask="url(#mask0_470_47)">
<path fill-rule="evenodd" clip-rule="evenodd" d="M23.9885 3.69624C23.1258 3.8177 22.5217 4.17788 21.4241 5.22518L20.5901 6.02094L20.4143 5.91395C20.032 5.68127 19.6957 5.7861 19.1576 6.30559C18.8456 6.60682 18.7267 6.68528 18.5824 6.68528C18.2731 6.68528 18.086 6.79344 17.6513 7.2234C17.2402 7.62999 17.2283 7.63684 17.0432 7.57227C16.6659 7.44079 16.3358 7.7709 16.4673 8.14819C16.5267 8.31858 16.5183 8.35198 16.3824 8.48797C16.2586 8.61178 16.2159 8.62579 16.1442 8.56626C15.9993 8.44596 15.694 8.51188 15.5598 8.69241C15.4514 8.83825 15.4473 8.8744 15.5166 9.06618L15.5934 9.27858L14.4302 10.4428C13.7904 11.0832 13.2404 11.6059 13.2078 11.6043C13.1753 11.6028 12.8982 11.2297 12.592 10.7753C11.423 9.04022 10.0873 7.97745 8.34282 7.39432C7.30518 7.04745 7.07403 7.02583 4.07749 6.99536C2.56881 6.98 1.26956 6.98375 1.19028 7.00362C0.837428 7.09221 0.716842 7.42397 0.936158 7.70276L1.05756 7.85715L3.55823 7.85815C4.93354 7.85874 6.30932 7.88551 6.61547 7.91768C8.20518 8.08485 9.6385 8.77028 10.7763 9.90752C11.1913 10.3224 12.0381 11.4499 12.48 12.1763C12.5541 12.298 12.5282 12.3374 12.0566 12.8208C11.7281 13.1576 11.5288 13.4141 11.4804 13.5624C11.3711 13.8976 11.4344 14.2715 11.6531 14.5818L11.8403 14.8474L11.1571 15.5323C10.529 16.1621 10.4754 16.233 10.4929 16.4114C10.5182 16.669 10.7571 16.854 10.9892 16.7958C11.0871 16.7713 11.42 16.4923 11.8067 16.1107L12.459 15.4671L12.68 15.6171C13.2391 15.9965 13.7535 15.9322 14.3176 15.4122L14.5649 15.1842L17.8998 20.0288C19.734 22.6933 21.2963 24.947 21.3717 25.0371C21.5599 25.2621 21.8506 25.2637 22.026 25.0407C22.1032 24.9426 22.1432 24.8232 22.1292 24.733C22.1166 24.652 20.5589 22.3395 18.6676 19.5943C16.7762 16.8491 15.2288 14.5807 15.2288 14.5535C15.2288 14.5264 15.4021 14.3335 15.614 14.125C15.8259 13.9165 16.0374 13.6735 16.084 13.5852C16.1874 13.3892 16.1395 13.1596 15.9707 13.0414C15.696 12.8489 15.6056 12.9075 14.5223 13.9802C13.9427 14.5542 13.4399 15.0056 13.3801 15.0056C13.2364 15.0056 12.2991 14.0622 12.2991 13.9175C12.2991 13.8462 13.0318 13.0713 14.262 11.8415L16.2248 9.87934L16.823 10.4775L17.4211 11.0756L16.9695 11.5397C16.7147 11.8016 16.5178 12.0544 16.5178 12.1198C16.5178 12.3344 16.7402 12.5447 16.9672 12.5447C17.1427 12.5447 17.2355 12.4851 17.5837 12.1491C17.9792 11.7676 18.0041 11.7536 18.2885 11.7536C18.5422 11.7536 18.6003 11.731 18.7055 11.5913C18.8126 11.449 18.819 11.4058 18.7573 11.2423C18.693 11.0719 18.7003 11.0418 18.8414 10.8945C18.9613 10.7693 19.0193 10.7458 19.1006 10.7894C19.4736 10.989 19.9068 10.5545 19.6848 10.2035C19.6443 10.1396 19.7368 10.0072 20.0529 9.67614C20.4661 9.24348 20.6194 8.95743 20.6194 8.61887C20.6194 8.53467 20.7683 8.32918 21.0263 8.05766C21.3122 7.75666 21.4446 7.56852 21.4715 7.42479C21.5139 7.19891 21.4217 6.85051 21.2909 6.74194C21.2445 6.70344 21.2207 6.64924 21.2378 6.62147C21.362 6.42061 23.0197 4.9594 23.2637 4.83571C23.9183 4.50407 24.6939 4.45198 25.3937 4.69268C27.0188 5.25184 27.7066 7.21784 26.7918 8.68883C26.6535 8.9112 26.4567 9.12407 24.0337 11.672C23.2555 12.4903 22.5344 13.2767 22.4313 13.4195C22.1814 13.7657 21.9347 14.305 21.813 14.7712C21.6809 15.2771 21.6791 16.204 21.8092 16.7048C22.1016 17.8306 22.895 18.8148 23.9026 19.3016C24.9115 19.789 25.9097 19.8709 26.9264 19.5498C27.5153 19.3637 27.7663 19.2097 29.262 18.1162C30.606 17.1337 30.8147 16.9486 30.8147 16.7397C30.8147 16.516 30.6248 16.3298 30.3974 16.3304C30.2335 16.3309 29.9584 16.5084 28.7972 17.3632C28.026 17.9309 27.2564 18.4633 27.0871 18.5462C25.633 19.2582 23.8131 18.7153 22.9994 17.3267C22.419 16.3363 22.4487 14.986 23.0716 14.0477C23.1892 13.8706 24.1809 12.7851 25.2755 11.6355C26.37 10.4858 27.329 9.46198 27.4065 9.36038C27.6039 9.10133 27.9154 8.41338 28.0007 8.04752C28.0924 7.65477 28.093 6.83364 28.0021 6.43631C27.9633 6.26709 27.8278 5.91049 27.7008 5.64383C27.0609 4.29928 25.5046 3.48278 23.9885 3.69624ZM19.7979 6.95018L19.598 7.15643L19.8742 7.4327L20.1504 7.70891L20.3685 7.49083L20.5866 7.27268L20.3271 7.00831C20.1844 6.86288 20.052 6.74387 20.0327 6.74387C20.0135 6.74387 19.9079 6.83668 19.7979 6.95018ZM17.996 8.10706L17.8085 8.30047L18.38 8.86983C18.6944 9.18295 18.9795 9.43918 19.0136 9.43918C19.0889 9.43918 19.3303 9.18993 19.3303 9.11206C19.3303 9.08129 19.0723 8.79905 18.7569 8.48487L18.1835 7.91364L17.996 8.10706ZM17.0292 9.07374L16.8715 9.23833L17.4738 9.83856L18.0761 10.4388L18.2051 10.3014C18.2762 10.2259 18.3342 10.1389 18.3342 10.1081C18.3342 10.0774 18.0761 9.79502 17.7605 9.48067L17.1868 8.90914L17.0292 9.07374ZM0.936158 13.6951C0.727916 13.9598 0.809127 14.2364 1.13092 14.3588C1.22831 14.3958 1.95364 14.4197 2.98126 14.4197C4.86387 14.4197 5.09297 14.4545 5.67628 14.8287C6.30118 15.2297 6.50497 15.5956 6.70419 16.6743C7.10163 18.8263 8.06684 20.6676 9.69516 22.3801C10.6371 23.3707 12.3374 24.7322 12.6328 24.7322C12.8023 24.7322 13.0608 24.4889 13.0608 24.3294C13.0608 24.1094 12.9846 24.0218 12.4461 23.6223C11.3073 22.7775 10.2731 21.8006 9.55788 20.8943C8.59202 19.6702 7.85444 18.0685 7.58813 16.6169C7.53493 16.3269 7.44938 15.924 7.39799 15.7217C7.15671 14.7706 6.22442 13.9186 5.1129 13.6331C4.82227 13.5586 4.39671 13.5407 2.9052 13.5407H1.05756L0.936158 13.6951ZM14.0167 24.9083C13.7823 25.0028 13.6868 25.3583 13.8413 25.5614C13.9712 25.7321 15.32 26.4708 17.3674 27.4927C18.8954 28.2552 19.3938 28.4789 19.5061 28.4527C19.7801 28.3888 19.9282 28.0895 19.8222 27.8133C19.8026 27.7624 18.9391 27.301 17.9032 26.7877C16.8673 26.2746 15.6243 25.6289 15.1409 25.353C14.6575 25.0771 14.2356 24.8526 14.2034 24.8541C14.1711 24.8556 14.0872 24.88 14.0167 24.9083Z" fill="#06268B"/>
</g>
</svg>
