<svg width="31" height="32" viewBox="0 0 31 32" fill="none" xmlns="http://www.w3.org/2000/svg">
<mask id="mask0_470_53" style="mask-type:luminance" maskUnits="userSpaceOnUse" x="0" y="1" width="31" height="31">
<path d="M30.321 1.39966H0.321045V31.3997H30.321V1.39966Z" fill="white"/>
</mask>
<g mask="url(#mask0_470_53)">
<path fill-rule="evenodd" clip-rule="evenodd" d="M15.819 3.4327C14.1688 3.65155 12.9757 5.1952 13.2045 6.81538C13.4168 8.31854 14.6741 9.42842 16.1621 9.42625C17.043 9.42497 17.7088 9.15368 18.3071 8.55233C18.9054 7.95081 19.1862 7.27604 19.1875 6.43633C19.1888 5.60413 18.9376 4.98034 18.3457 4.34541C17.7161 3.67018 16.7257 3.31241 15.819 3.4327ZM15.614 4.30141C14.9639 4.48047 14.3265 5.07426 14.1059 5.70625C14.041 5.89206 14.004 6.17073 14.0046 6.46797C14.0053 6.87045 14.0316 6.99221 14.1901 7.32936C14.4161 7.81018 14.7754 8.17997 15.2363 8.40631C15.5541 8.56235 15.6387 8.57735 16.1999 8.57735C16.7608 8.57735 16.8444 8.56252 17.1461 8.40965C17.557 8.20147 17.9574 7.7987 18.1736 7.37618C18.3236 7.08327 18.3386 6.9979 18.3386 6.43868C18.3386 5.88303 18.3226 5.79098 18.174 5.4884C17.7075 4.53819 16.6068 4.02789 15.614 4.30141ZM15.7312 10.5183C15.4175 10.579 14.9811 10.7393 14.5886 10.9382C14.215 11.1275 13.8724 11.4512 10.7517 14.5633L7.32512 17.9807L6.54448 17.5336C5.82823 17.1235 5.73108 17.0843 5.36686 17.0582C4.91007 17.0256 4.58944 17.1356 4.2353 17.4465C3.61251 17.9934 3.59844 19.0437 4.20612 19.6264C4.32137 19.7369 5.78932 20.6184 7.46821 21.5852L10.5208 23.343L6.84178 23.3723C3.20985 23.4012 3.15981 23.4032 2.92843 23.5282C2.2621 23.8885 1.94259 24.6306 2.15675 25.3205L2.24311 25.5988H1.95969C1.46059 25.5988 1.15684 25.7856 0.959089 26.2141C0.866863 26.4139 0.85075 26.6031 0.849636 27.4993C0.848113 28.7202 0.910046 28.9399 1.33456 29.2209L1.57221 29.3781L15.1116 29.396C24.7921 29.4087 28.7367 29.3955 28.9515 29.3494C29.3236 29.2697 29.6324 28.9831 29.7329 28.6241C29.7812 28.4515 29.7969 27.9221 29.7836 26.9133C29.7654 25.5317 29.7571 25.4376 29.6308 25.1812C29.4572 24.8289 29.1313 24.497 28.8264 24.3622L28.5834 24.2546L28.9285 23.8997C29.837 22.9656 30.0315 21.6659 29.4428 20.4648C28.5528 18.6491 26.1076 18.2399 24.67 19.6661C23.485 20.8416 23.451 22.6553 24.591 23.8741C24.7867 24.0832 24.9365 24.2602 24.9239 24.2674C24.9113 24.2746 24.7746 24.3441 24.6201 24.4219C24.2935 24.5862 24.0237 24.9017 23.8753 25.293L23.7705 25.5695L23.1199 25.5861C22.7622 25.5952 22.4694 25.5887 22.4694 25.5716C22.4694 25.5545 22.5632 25.4099 22.6779 25.2503C23.1001 24.6627 23.2658 23.8262 23.0933 23.1534C22.7697 21.8913 21.7622 21.0871 20.5045 21.0871H20.0734L20.052 17.3225C20.0282 13.1449 20.0453 13.3374 19.6209 12.4782C19.4672 12.167 19.2791 11.9154 18.9602 11.5947C18.2156 10.8457 17.5302 10.5445 16.4929 10.5102C16.1545 10.4991 15.8117 10.5027 15.7312 10.5183ZM15.6295 11.3923C15.1671 11.5168 14.7503 11.7497 14.4047 12.0766C14.0216 12.4389 13.7888 12.7974 13.6142 13.2941C13.4849 13.6618 13.4795 13.7568 13.458 16.0334C13.4458 17.3305 13.4539 18.3918 13.476 18.3918C13.4982 18.3918 13.9421 18.1372 14.4626 17.8258C14.983 17.5146 15.4132 17.2575 15.4184 17.2546C15.4237 17.2516 15.6186 16.5373 15.8515 15.6672C16.0844 14.7971 16.3161 14.0378 16.3663 13.9798C16.5006 13.8247 16.8317 13.8684 16.9741 14.06L17.086 14.2107L16.6429 15.8764C16.3991 16.7926 16.1755 17.598 16.146 17.6662C16.1131 17.7421 15.3453 18.2402 14.1686 18.949C13.1105 19.5863 12.1704 20.1789 12.0794 20.266C11.7567 20.5745 11.8281 21.1505 12.2136 21.3498C12.5882 21.5435 12.6773 21.506 14.597 20.3477C16.9974 18.8992 17.1549 18.7944 17.3104 18.5428C17.3834 18.4247 17.5523 17.9296 17.6858 17.4428C17.8917 16.6914 17.9528 16.5394 18.0894 16.4379C18.2892 16.2896 18.5353 16.3537 18.6451 16.5827C18.7078 16.7136 18.6838 16.8583 18.4649 17.6654C18.3259 18.1777 18.1653 18.6867 18.108 18.7965C17.8782 19.2368 17.4947 19.5471 16.2409 20.3068L15.0013 21.0578L17.0505 21.0732C18.1775 21.0817 19.1328 21.076 19.1732 21.0605C19.2713 21.0228 19.2801 14.1991 19.1828 13.6725C18.9284 12.2964 17.729 11.2959 16.3464 11.3065C16.1208 11.3082 15.7982 11.3468 15.6295 11.3923ZM10.3472 16.1291L8.03938 18.4376L8.01178 18.725C7.988 18.9726 8.00563 19.0378 8.13888 19.1962C8.34038 19.4357 8.63487 19.5357 8.89046 19.4513C9.01971 19.4086 9.66061 18.8086 10.8841 17.5846L12.6872 15.7807L12.6711 14.8007L12.655 13.8207L10.3472 16.1291ZM11.3681 18.2724C10.6609 18.9802 10.0942 19.5699 10.1089 19.5828C10.1235 19.5957 10.3575 19.7335 10.6289 19.8889L11.1222 20.1714L11.2148 20.0311C11.4325 19.7009 11.6139 19.5435 12.1336 19.2334L12.6843 18.9047V17.9451C12.6843 17.4174 12.6775 16.9856 12.6691 16.9856C12.6608 16.9856 12.0753 17.5646 11.3681 18.2724ZM4.8411 18.0129C4.51315 18.2888 4.47413 18.7994 4.76171 19.0516C4.81684 19.1 6.52315 20.0963 8.55342 21.2656C10.5837 22.4349 12.2909 23.4309 12.3474 23.4789C12.4509 23.5671 12.4852 23.8732 12.4051 23.9934C12.2765 24.1858 12.12 24.1926 7.76335 24.1926C2.99774 24.1926 3.17557 24.1796 2.98801 24.5422C2.80971 24.887 2.90751 25.2374 3.24553 25.4652L3.44382 25.5988H8.3794H13.315L13.2366 25.3791C12.9888 24.6848 13.3417 23.8474 14.0256 23.5068C14.2199 23.4101 14.4929 23.4003 17.385 23.3855C20.4788 23.3696 20.535 23.3714 20.6516 23.488C20.8215 23.6579 20.8053 23.9221 20.6158 24.0711C20.4642 24.1904 20.4075 24.1926 17.4781 24.1926C14.2054 24.1926 14.2452 24.1885 14.0622 24.5422C13.9103 24.836 13.9473 25.1033 14.174 25.3507L14.3745 25.5695H17.6749H20.9753L21.3562 25.3598C22.5021 24.7289 22.6878 23.2553 21.7314 22.3812C21.1937 21.8898 21.3602 21.9074 17.2494 21.9074H13.6323L13.2608 22.0831C12.4332 22.4747 11.5382 22.1533 11.1722 21.3331C11.0699 21.1037 10.9865 21.0387 10.2461 20.6104C9.44534 20.1472 9.42905 20.1408 9.20663 20.2074C8.68362 20.3642 8.01073 20.2298 7.65501 19.8977C7.44952 19.7059 7.24602 19.3308 7.20366 19.0656C7.16675 18.8349 7.15298 18.8236 6.32798 18.3479C5.37272 17.797 5.15581 17.7481 4.8411 18.0129ZM26.1004 19.7089C25.7071 19.8351 25.226 20.198 24.9744 20.5581C24.2882 21.5404 24.5046 22.8711 25.4657 23.5786C26.5917 24.4076 28.1796 23.9859 28.7801 22.6984C28.9214 22.3953 28.944 22.2742 28.944 21.8195C28.944 21.3483 28.9242 21.2503 28.7574 20.8981C28.5323 20.4229 28.155 20.0393 27.697 19.8202C27.2863 19.6237 26.5303 19.571 26.1004 19.7089ZM25.0105 25.1253C24.8339 25.233 24.6374 25.4584 24.6374 25.5533C24.6374 25.5783 25.5998 25.5988 26.7761 25.5988C27.9524 25.5988 28.9148 25.5831 28.9148 25.5639C28.9148 25.5448 28.8581 25.4495 28.7888 25.3522C28.5632 25.0354 28.4267 25.0129 26.734 25.0131C25.3214 25.0133 25.1789 25.0226 25.0105 25.1253ZM1.73897 26.4895C1.64042 26.588 1.64042 28.4182 1.73897 28.5168C1.79323 28.5711 4.88516 28.5871 15.2993 28.5871C27.4847 28.5871 28.7981 28.5782 28.8813 28.4951C28.9572 28.4191 28.9733 28.2411 28.9733 27.4814C28.9733 26.8427 28.9518 26.5382 28.903 26.4895C28.8007 26.3871 1.84134 26.3871 1.73897 26.4895Z" fill="#06268B"/>
</g>
</svg>
