<svg width="32" height="31" viewBox="0 0 32 31" fill="none" xmlns="http://www.w3.org/2000/svg">
<mask id="mask0_470_103" style="mask-type:luminance" maskUnits="userSpaceOnUse" x="1" y="0" width="31" height="31">
<path d="M31.0267 0.340607H1.02673V30.3406H31.0267V0.340607Z" fill="white"/>
</mask>
<g mask="url(#mask0_470_103)">
<path fill-rule="evenodd" clip-rule="evenodd" d="M15.8358 0.882599C15.783 0.922911 14.394 2.64334 12.7492 4.70584C10.4892 7.53984 9.7585 8.49416 9.75792 8.61281C9.75634 8.94451 9.80233 8.95389 11.4312 8.95389H12.9212V11.2464V13.5388L12.7308 13.4996C12.0115 13.3517 11.3097 13.2905 10.3285 13.2902L9.22981 13.2898V11.8069C9.22981 10.7093 9.21077 10.2997 9.15657 10.2308C9.03704 10.0787 8.8622 10.0599 8.673 10.1786C8.37089 10.3682 1.18735 16.1263 1.12225 16.2311C1.0813 16.297 1.07942 16.3802 1.11681 16.4781C1.19925 16.6941 8.70382 22.6648 8.89284 22.6648C8.97147 22.6648 9.07952 22.6166 9.13284 22.5577C9.21768 22.4639 9.22981 22.2655 9.22981 20.9712V19.4918L10.3577 19.511C11.4481 19.5295 11.4955 19.5353 11.7813 19.6862C12.1811 19.8972 12.5562 20.2831 12.7399 20.6726L12.8919 20.9949L12.9212 25.3502C12.9496 29.5761 12.9539 29.708 13.0642 29.7887C13.2335 29.9124 18.8199 29.9124 18.9891 29.7887C19.0995 29.708 19.1037 29.5761 19.1322 25.3502L19.1615 20.9949L19.3134 20.6726C19.4972 20.2831 19.8723 19.8972 20.272 19.6862C20.5579 19.5353 20.6053 19.5295 21.6956 19.511L22.8236 19.4918V20.9814C22.8236 22.3499 22.8322 22.4787 22.9307 22.5679C22.9897 22.6212 23.0977 22.6648 23.1707 22.6648C23.3422 22.6648 30.8576 16.6846 30.9331 16.4881C30.9621 16.4123 30.9701 16.3093 30.9509 16.2591C30.9191 16.1763 23.8853 10.5227 23.4146 10.2017C23.201 10.056 23.0265 10.0658 22.8968 10.2308C22.8426 10.2997 22.8236 10.7093 22.8236 11.8069V13.2898L21.7249 13.2902C20.7437 13.2905 20.0419 13.3517 19.3226 13.4996L19.1322 13.5388V11.2464V8.95389H20.6172C21.9815 8.95389 22.1102 8.94516 22.1992 8.84672C22.2526 8.78778 22.2959 8.67574 22.2956 8.5977C22.2951 8.49902 21.3853 7.31508 19.3047 4.70584C17.6601 2.64334 16.2711 0.922911 16.218 0.882599C16.1649 0.842345 16.0788 0.809357 16.0267 0.809357C15.9745 0.809357 15.8886 0.842345 15.8358 0.882599ZM13.4063 4.99998L10.8153 8.25076H12.1026C13.3119 8.25076 13.3971 8.25785 13.5072 8.36795C13.6209 8.48168 13.6243 8.56324 13.6243 11.1223V13.7595L13.8734 13.8582C14.3968 14.0658 15.1549 14.4756 15.5821 14.7821L16.0268 15.1012L16.598 14.7129C17.0888 14.3794 17.6058 14.1056 18.2679 13.8285L18.429 13.7611V11.1231C18.429 8.56324 18.4325 8.48168 18.5462 8.36795C18.6563 8.25785 18.7415 8.25076 19.9509 8.25076H21.2385L18.6573 5.01346C17.2375 3.23291 16.0583 1.77012 16.0366 1.76268C16.0151 1.75529 14.8314 3.21205 13.4063 4.99998ZM5.27684 13.7557C3.50555 15.1682 2.05009 16.3465 2.04247 16.3743C2.03057 16.4174 8.34563 21.4877 8.4787 21.5418C8.50507 21.5525 8.52669 20.9981 8.52669 20.3097C8.52669 19.2717 8.54227 19.0359 8.61792 18.9279C8.70751 18.7999 8.73182 18.7976 10.019 18.7976C11.4829 18.7976 11.7772 18.8497 12.3345 19.2073C12.703 19.4438 13.1628 19.9436 13.3305 20.29C13.6222 20.8927 13.6229 20.9036 13.6236 25.1697L13.6243 29.1687H16.0298H18.4352L18.4136 24.8474C18.3926 20.6854 18.3873 20.5067 18.2672 19.9988C17.9002 18.4458 17.2483 17.257 16.177 16.187C15.2177 15.2289 14.0587 14.573 12.6868 14.2121C12.0369 14.0411 11.9546 14.0335 10.3605 13.9992C9.12329 13.9726 8.68893 13.9446 8.63198 13.8876C8.57614 13.8317 8.54825 13.464 8.52669 12.4995L8.49739 11.1875L5.27684 13.7557ZM23.5267 12.455C23.5267 13.468 23.5093 13.76 23.4437 13.8499C23.366 13.9562 23.2556 13.9659 21.7591 13.9972C19.7147 14.0399 19.0566 14.1724 17.8284 14.7882C17.3306 15.0378 16.6126 15.4876 16.6126 15.5498C16.6126 15.5658 16.8393 15.8483 17.1165 16.1775C17.9213 17.1338 18.4918 18.1852 18.7867 19.2554C18.8549 19.5032 18.9213 19.7415 18.934 19.785C18.9491 19.8362 19.0828 19.7479 19.3129 19.5348C20.0172 18.8828 20.3323 18.7976 22.0399 18.7976C23.3214 18.7976 23.3459 18.7999 23.4355 18.9279C23.5111 19.0359 23.5267 19.2717 23.5267 20.3097C23.5267 20.9981 23.5483 21.5525 23.5746 21.5418C23.6631 21.5057 30.0253 16.4251 30.028 16.3883C30.0301 16.3589 24.0038 11.5171 23.6331 11.2504C23.5312 11.1771 23.5267 11.228 23.5267 12.455Z" fill="#06268B"/>
</g>
</svg>
