<svg width="31" height="32" viewBox="0 0 31 32" fill="none" xmlns="http://www.w3.org/2000/svg">
<path fill-rule="evenodd" clip-rule="evenodd" d="M18.5062 3.94999C17.0104 4.28304 16.1594 5.93011 16.7605 7.32862C16.7945 7.40767 16.6538 7.38235 15.9924 7.19058C14.8887 6.87054 14.6476 6.88624 13.7343 7.33765C12.8673 7.7662 11.1031 8.89589 10.7202 9.26772C10.1561 9.81546 9.91237 10.4617 9.91893 11.3921C9.92245 11.8949 9.97014 12.1731 10.2549 13.3528C10.4375 14.1089 10.6327 14.8076 10.6889 14.9055C10.7449 15.0034 10.9089 15.1445 11.0532 15.2191C11.6356 15.5201 12.4441 15.2645 12.7423 14.6852L12.8864 14.4053L12.7523 12.9465C12.6787 12.1441 12.6323 11.4514 12.6493 11.4072C12.6777 11.3331 14.3761 10.6791 14.4165 10.7266C14.4729 10.793 14.8603 11.7225 14.9135 11.9194C14.9992 12.2359 14.9929 12.6774 14.8975 13.0354C14.7922 13.4306 14.7284 13.5429 14.3166 14.0581C14.1234 14.2998 13.8833 14.669 13.783 14.8784C13.6113 15.237 13.6007 15.2991 13.6007 15.9384V16.6176L12.9854 17.1735C12.1364 17.9406 11.1636 18.9869 10.378 19.978C10.3136 20.0593 10.0357 20.2256 9.76055 20.3476C8.58393 20.8694 7.28567 21.808 6.2369 22.895C5.40844 23.7537 4.33577 24.9781 4.22614 25.19C4.04473 25.5408 4.06471 25.808 4.36184 27.0073L4.64491 28.1499L3.55641 28.1825C2.9577 28.2004 2.46001 28.2202 2.4504 28.2264C2.44079 28.2327 2.39766 28.3216 2.35454 28.4241C2.25422 28.6628 2.33784 28.9278 2.53747 29.0037C2.76088 29.0886 27.725 29.0759 27.8868 28.9907C28.0607 28.8992 28.1007 28.8273 28.1017 28.604C28.1023 28.4907 28.0552 28.3661 27.9854 28.2964C27.8698 28.1808 27.7874 28.1791 21.877 28.1753C17.0632 28.1721 15.9377 28.1573 16.1498 28.1C16.4939 28.0072 16.9073 27.7194 17.1018 27.4372C17.3109 27.1338 17.3769 26.804 17.3786 26.0513C17.3793 25.7028 17.4065 25.3681 17.4389 25.3075C17.4713 25.2469 17.9393 24.8602 18.479 24.4481C21.1938 22.3746 21.7249 21.6724 21.3075 20.7085C21.1247 20.2865 20.5168 19.394 19.693 18.3382C18.9335 17.365 18.7862 17.1341 18.7863 16.9175C18.7863 16.8434 18.9129 16.3393 19.0675 15.7973L19.3486 14.8118L19.9258 15.461C20.2433 15.818 20.5856 16.1612 20.6865 16.2236C21.13 16.4977 21.7709 16.4865 22.3897 16.1938C23.0037 15.9035 25.9933 13.1026 26.3619 12.4724C26.7877 11.7444 26.6392 11.0795 25.9734 10.7337C25.7163 10.6001 25.5962 10.5762 25.1717 10.5742C24.7214 10.572 24.6334 10.591 24.2746 10.7677C23.8269 10.988 23.5686 11.284 23.4558 11.7058C23.397 11.9255 23.2981 12.039 22.7484 12.5169L22.1094 13.0724L21.5097 11.8431C20.8585 10.5084 20.4173 9.72534 19.9897 9.1452C19.8389 8.94065 19.724 8.76774 19.7343 8.76095C19.7446 8.75421 19.9289 8.66386 20.144 8.56015C21.0877 8.10517 21.6262 7.05054 21.4654 5.97218C21.2593 4.59007 19.8763 3.64489 18.5062 3.94999ZM18.4536 4.83769C17.5975 5.14102 17.1577 6.24692 17.5713 7.05616C17.8805 7.66097 18.3716 7.96179 19.0499 7.96179C19.7054 7.96179 20.2002 7.66694 20.487 7.10556C20.6853 6.71731 20.692 6.00399 20.5007 5.64206C20.1084 4.89927 19.2413 4.5586 18.4536 4.83769ZM14.5675 7.87249C13.9585 8.09708 11.7125 9.46126 11.2983 9.85811C10.9548 10.1874 10.7944 10.6074 10.7688 11.2451C10.7481 11.7605 10.7709 11.9076 11.055 13.0927C11.2248 13.8009 11.3961 14.4161 11.4357 14.4597C11.5362 14.5706 11.8557 14.4914 11.9538 14.3313C12.0193 14.2245 12.0096 13.9805 11.892 12.7801C11.74 11.2284 11.7522 11.03 12.0158 10.7664C12.1088 10.6733 12.592 10.4654 13.3922 10.1739C14.4181 9.80022 14.6506 9.73436 14.7759 9.78206C14.8914 9.82595 14.9958 9.98684 15.222 10.4692C15.8224 11.7498 15.9108 12.1499 15.7709 12.9517C15.6687 13.5369 15.4427 14.0089 15.0026 14.5562C14.392 15.3154 14.2811 15.7291 14.5076 16.4019C14.8004 17.2715 15.3926 18.043 17.1 19.779C18.5815 21.2853 18.5745 21.2718 18.0993 21.6933C17.947 21.8285 17.6669 22.084 17.4768 22.2612C17.0627 22.6471 15.3749 24.5228 15.2804 24.7019C15.2262 24.8048 15.2694 25.054 15.5139 26.0496C15.679 26.7213 15.8227 27.2811 15.8334 27.2936C15.8759 27.343 16.203 27.1654 16.3413 27.0177C16.4799 26.8698 16.4897 26.816 16.514 26.0698C16.5346 25.4363 16.5636 25.2263 16.6596 25.0151C16.8188 24.6652 16.8969 24.59 17.8478 23.8733C19.2956 22.7819 20.1432 22.0293 20.468 21.547C20.5791 21.3819 20.6043 21.2888 20.5744 21.153C20.5175 20.8939 19.7319 19.7347 18.8832 18.6577C18.4393 18.0944 18.1088 17.6167 18.0551 17.4608C17.8976 17.0027 17.9408 16.6948 18.3761 15.1714C18.6016 14.3819 18.7862 13.73 18.7862 13.7228C18.7862 13.7155 18.8639 13.6694 18.9587 13.6204C19.0804 13.5574 19.1725 13.5469 19.2712 13.5844C19.3482 13.6137 19.7487 14.0157 20.1611 14.4778C20.5734 14.9398 20.9748 15.3772 21.053 15.4497C21.242 15.6251 21.5974 15.6223 21.9796 15.4427C22.5057 15.1953 24.9819 12.9197 25.5473 12.164C25.9144 11.6732 25.7821 11.4214 25.157 11.4214C24.6043 11.4214 24.3295 11.6227 24.2419 12.0918C24.1832 12.4056 24.2244 12.3593 23.284 13.1691C22.3274 13.9929 22.1738 14.0574 21.7192 13.8254C21.5071 13.7172 21.4444 13.6124 20.7296 12.1702C20.3098 11.3233 19.8062 10.3848 19.6103 10.0845C19.2295 9.50069 18.7356 8.93931 18.4919 8.81327C18.2891 8.70845 15.0401 7.78753 14.8912 7.79268C14.8259 7.79497 14.6803 7.83089 14.5675 7.87249ZM13.321 18.0053C12.6554 18.6198 11.8469 19.4978 11.1524 20.3605C10.7898 20.8109 10.748 20.8428 10.2528 21.0483C9.64501 21.3006 8.89618 21.7383 8.22786 22.2319C7.2634 22.9443 4.95897 25.394 4.95721 25.7087C4.95651 25.8427 5.47776 28.1095 5.52381 28.1725C5.55821 28.2195 5.89846 28.0432 6.03311 27.9086C6.16331 27.7783 6.17672 27.7069 6.21616 26.9336C6.26174 26.0409 6.32549 25.7983 6.58717 25.5223C6.83807 25.2577 9.19372 23.3235 9.75305 22.9229C10.4801 22.4021 10.9882 22.1244 11.9366 21.7294C12.3954 21.5384 13.0366 21.2338 13.3615 21.0527C13.9188 20.742 15.09 19.9705 15.475 19.6605L15.65 19.5195L15.2952 19.1179C14.8156 18.5751 14.3844 18.0128 14.1899 17.6763C14.1014 17.5232 14.0177 17.398 14.0039 17.398C13.9901 17.398 13.6828 17.6712 13.321 18.0053ZM16.003 20.3035C15.6945 20.5624 14.6142 21.2958 14.0803 21.609C13.385 22.0168 12.8881 22.2617 12.2281 22.5212C11.5017 22.8069 11.1724 22.9752 10.6417 23.3317C9.61489 24.0217 7.14053 26.0694 7.09969 26.263C7.08475 26.334 7.06336 26.7349 7.05229 27.1538C7.04022 27.6094 7.00307 27.9685 6.95983 28.0474L6.88758 28.1792L11.2988 28.1739C13.9729 28.1707 15.6396 28.1482 15.531 28.1166C15.1688 28.0113 15.1044 27.8714 14.7362 26.3882C14.5467 25.625 14.3917 24.9146 14.3917 24.8095C14.3917 24.7044 14.4642 24.4843 14.5528 24.3206C14.7343 23.9852 16.044 22.4948 16.8362 21.7222L17.3588 21.2125L16.8263 20.6822C16.5334 20.3905 16.2679 20.1528 16.2363 20.154C16.2047 20.1551 16.0997 20.2224 16.003 20.3035Z" fill="#06268B"/>
</svg>
