<svg width="20" height="11" viewBox="0 0 20 11" fill="none" xmlns="http://www.w3.org/2000/svg">
<path d="M18 5C17.7596 5.00172 17.5214 5.04677 17.297 5.133L14.899 3.17C14.958 2.956 15 2.734 15 2.5C15 1.114 13.886 0 12.5 0C11.114 0 10 1.114 10 2.5C10 2.896 10.1 3.265 10.262 3.597L7.353 7.035C7.2366 7.0129 7.11847 7.00119 7 7C6.821 7 6.652 7.03 6.488 7.074L3.925 4.511C3.97 4.348 4 4.179 4 4C4 2.892 3.108 2 2 2C0.892 2 0 2.892 0 4C0 5.108 0.892 6 2 6C2.179 6 2.348 5.97 2.512 5.926L5.075 8.489C5.02802 8.65538 5.00281 8.82714 5 9C5 10.108 5.892 11 7 11C8.108 11 9 10.108 9 9C9 8.763 8.952 8.54 8.877 8.329L11.79 4.887C12.017 4.953 12.252 5 12.5 5C12.8945 4.99705 13.2828 4.90076 13.633 4.719L16.032 6.682C16.0129 6.78698 16.0022 6.89332 16 7C16 8.108 16.892 9 18 9C19.108 9 20 8.108 20 7C20 5.892 19.108 5 18 5Z" fill="#06268B"/>
</svg>
