<svg width="32" height="31" viewBox="0 0 32 31" fill="none" xmlns="http://www.w3.org/2000/svg">
<g clip-path="url(#clip0_470_73)">
<mask id="mask0_470_73" style="mask-type:luminance" maskUnits="userSpaceOnUse" x="1" y="0" width="31" height="31">
<path d="M31.454 0.905823H1.45398V30.9058H31.454V0.905823Z" fill="white"/>
</mask>
<g mask="url(#mask0_470_73)">
<path fill-rule="evenodd" clip-rule="evenodd" d="M15.841 6.41708C14.8259 6.57406 14.1066 6.93991 13.3754 7.67105C12.4893 8.55722 12.0953 9.50146 12.1032 10.7203C12.1084 11.5123 12.2469 12.0815 12.5991 12.7586C12.8622 13.2645 13.4427 13.9357 13.8777 14.2372C14.008 14.3275 14.0938 14.4202 14.0685 14.4433C14.0431 14.4663 13.871 14.5406 13.686 14.6084C13.0453 14.8435 12.3152 15.2561 11.6142 15.7792L11.4327 15.9147L11.0371 15.6152C10.8195 15.4505 10.3792 15.189 10.0587 15.0341L9.47607 14.7523L9.73874 14.5371C10.0757 14.261 10.5428 13.5624 10.7098 13.085C10.8876 12.5767 10.931 11.7334 10.8065 11.2041C10.4465 9.67279 9.01271 8.52505 7.4598 8.52505C5.5374 8.52505 3.91722 10.2509 4.05175 12.1553C4.11421 13.0393 4.4032 13.6872 5.02916 14.3461L5.43703 14.7755L5.05763 14.9367C4.09324 15.3467 3.06041 16.2241 2.44781 17.154C1.82232 18.1034 1.52484 19.0212 1.47076 20.1685L1.43689 20.8863H5.0714H8.70591L8.67568 21.6334C8.65699 22.0941 8.67269 22.5421 8.71658 22.8022C8.90531 23.9207 9.77331 24.9196 10.8833 25.2959C11.2678 25.4262 11.276 25.4264 16.2275 25.4437C21.5634 25.4623 21.6114 25.46 22.3115 25.1588C22.9175 24.8981 23.5737 24.2697 23.8666 23.6695C24.1345 23.1205 24.2026 22.7039 24.1794 21.7549L24.1583 20.8872L27.8207 20.872L31.4832 20.857L31.4983 20.271C31.5087 19.8681 31.4952 19.7125 31.4553 19.773C31.4101 19.8413 31.3969 19.8216 31.3958 19.6851C31.3936 19.3888 31.1804 18.5976 30.9657 18.0885C30.3995 16.7468 29.1201 15.4555 27.8437 14.9375L27.4403 14.7738L27.8575 14.3526C29.2052 12.992 29.2024 10.8992 27.851 9.54781C26.7525 8.44929 25.2258 8.23009 23.7769 8.96281C23.3188 9.19437 22.6137 9.9204 22.3828 10.398C21.7175 11.7741 21.9784 13.3601 23.0422 14.4057L23.4017 14.7591L22.7843 15.0672C22.4447 15.2366 22.0377 15.4748 21.8799 15.5966C21.7221 15.7183 21.5583 15.8435 21.5159 15.8749C21.4618 15.9147 21.3895 15.8932 21.2754 15.8034C20.6855 15.3391 19.8197 14.8493 19.1633 14.6084C18.725 14.4476 18.7018 14.4202 18.8972 14.2927C19.1872 14.1036 19.7428 13.5423 19.9685 13.2105C20.5273 12.3891 20.7412 11.7011 20.7431 10.7203C20.7453 9.4823 20.3604 8.55757 19.4739 7.67105C19.0679 7.26511 18.8317 7.08329 18.4629 6.89281C17.662 6.47925 16.6392 6.29363 15.841 6.41708ZM15.6102 7.44452C15.0095 7.5899 14.5309 7.86622 14.0476 8.34663C13.3671 9.02322 13.0555 9.76876 13.0555 10.7203C13.0555 11.6666 13.3659 12.4055 14.0519 13.0924C15.5199 14.5622 17.8243 14.398 19.1089 12.7321C19.4141 12.3364 19.5973 11.9306 19.7093 11.4022C20.0263 9.90675 19.2723 8.36286 17.9065 7.71077C17.6393 7.58322 17.281 7.45015 17.1102 7.41499C16.6934 7.32927 16.0329 7.34228 15.6102 7.44452ZM6.72187 9.60488C5.51531 10.0491 4.84412 11.131 5.03115 12.33C5.33964 14.3077 7.76291 15.0991 9.17777 13.6842C9.66638 13.1956 9.89015 12.651 9.89015 11.9507C9.89015 10.843 9.20712 9.9262 8.1406 9.60247C7.80351 9.50023 7.00253 9.50158 6.72187 9.60488ZM24.5788 9.66247C23.6819 10.0313 23.1552 10.6852 23.0152 11.6036C22.8998 12.3605 23.1301 13.0831 23.6678 13.6517C24.7341 14.7791 26.6018 14.6133 27.4693 13.3142C28.3855 11.9421 27.7152 10.0839 26.1306 9.603C25.6903 9.46941 24.9824 9.49654 24.5788 9.66247ZM15.2491 15.174C14.5661 15.2991 14.0266 15.4835 13.3627 15.8186C12.5788 16.2144 12.0961 16.5773 11.4666 17.2441C10.3831 18.3917 9.79312 19.7424 9.65126 21.4C9.52195 22.9108 9.88669 23.7508 10.8862 24.2439L11.2658 24.4312L16.2183 24.4495C21.4015 24.4686 21.5531 24.4624 22.0431 24.2139C22.3816 24.0421 22.8269 23.5662 23.0054 23.1853C23.1479 22.8813 23.1647 22.7729 23.1819 22.0504C23.2122 20.7727 23.0051 19.8509 22.4401 18.7487C21.4792 16.8745 19.6627 15.5416 17.5672 15.1732C16.9701 15.0683 15.8242 15.0686 15.2491 15.174ZM6.75667 15.4395C4.97039 15.7171 3.5063 16.845 2.8047 18.4839C2.65025 18.8449 2.45255 19.5571 2.45103 19.7584L2.45003 19.8902H5.66537H8.88064L9.06896 19.3509C9.36351 18.5074 9.82101 17.6777 10.3547 17.0191C10.4722 16.8741 10.6007 16.7131 10.6402 16.6614C10.7016 16.581 10.6617 16.5322 10.3641 16.3234C9.34775 15.6105 7.91519 15.2595 6.75667 15.4395ZM24.7157 15.4433C24.2371 15.5165 23.3838 15.7999 23.0257 16.0047C22.6306 16.2305 22.1961 16.5513 22.1961 16.6171C22.1961 16.6483 22.3359 16.8503 22.5066 17.0661C23.0611 17.7669 23.4982 18.565 23.7804 19.3921L23.9403 19.8609L27.1999 19.876L30.4594 19.8912L30.4228 19.6416C30.366 19.2538 30.0603 18.3741 29.858 18.0164C29.1584 16.7789 28.0185 15.8953 26.6821 15.5548C26.1261 15.413 25.2415 15.3629 24.7157 15.4433ZM1.47533 20.3296C1.4755 20.6519 1.48535 20.7762 1.49718 20.606C1.50908 20.4358 1.50896 20.1721 1.49695 20.02C1.48488 19.868 1.47521 20.0074 1.47533 20.3296Z" fill="#06268B"/>
</g>
</g>
<defs>
<clipPath id="clip0_470_73">
<rect width="31" height="31" fill="white" transform="translate(0.5)"/>
</clipPath>
</defs>
</svg>
