<svg width="32" height="31" viewBox="0 0 32 31" fill="none" xmlns="http://www.w3.org/2000/svg">
<g clip-path="url(#clip0_470_97)">
<mask id="mask0_470_97" style="mask-type:luminance" maskUnits="userSpaceOnUse" x="1" y="0" width="31" height="31">
<path d="M31.3142 0.742737H1.31421V30.7427H31.3142V0.742737Z" fill="white"/>
</mask>
<g mask="url(#mask0_470_97)">
<path fill-rule="evenodd" clip-rule="evenodd" d="M7.29833 0.863905C7.09302 0.923202 6.917 0.979745 6.90722 0.98953C6.89116 1.00564 7.84114 4.77867 7.90255 4.94262C7.93413 5.02699 8.9021 4.78992 8.9021 4.69781C8.9021 4.66559 8.67845 3.76254 8.40505 2.69098C7.84308 0.488143 7.95563 0.673944 7.29833 0.863905ZM22.0277 0.991757C21.887 1.11351 21.8625 1.21101 21.7078 2.26406C21.562 3.2557 21.5233 3.41818 21.4109 3.50918C21.2661 3.62643 21.0509 3.6443 20.8807 3.55318C20.8184 3.51984 20.4914 3.12644 20.1541 2.67902C19.8168 2.23154 19.4814 1.82379 19.4087 1.77287C19.149 1.591 18.9973 1.65223 18.1531 2.27976L17.3466 2.87924L16.5228 2.86201C14.1629 2.81256 11.9768 3.60404 10.1578 5.16656C8.39052 6.68455 7.14036 9.09604 6.96071 11.3336L6.92192 11.817H6.75212C6.47761 11.817 6.31993 12.0305 6.20679 12.5555C6.152 12.8099 6.06815 13.196 6.02052 13.4133L5.93386 13.8084L5.3672 13.4169C5.05554 13.2015 4.73767 12.9775 4.66079 12.9192C4.57929 12.8572 4.42231 12.813 4.28403 12.813C4.05675 12.813 4.01116 12.8488 3.17866 13.6814C2.08261 14.7774 2.09603 14.7082 2.7855 15.7084C3.04683 16.0876 3.23802 16.4177 3.2103 16.4419C3.18259 16.4661 2.85669 16.5463 2.48608 16.6202C1.6953 16.7776 1.4638 16.8617 1.37749 17.023C1.33829 17.0963 1.31421 17.5832 1.31421 18.304C1.31421 19.2582 1.33044 19.4899 1.40485 19.596C1.50399 19.7377 1.81776 19.8413 2.61036 19.9942C2.88815 20.0478 3.14878 20.1122 3.18944 20.1374C3.24288 20.1704 3.13132 20.3763 2.78685 20.8806C2.1006 21.8851 2.08583 21.8089 3.17866 22.9017C4.27806 24.0012 4.2027 23.9873 5.22645 23.2767L5.9372 22.7833L6.03394 23.2328C6.39558 24.9129 6.23028 24.7662 7.76069 24.7662C8.49276 24.7662 8.9839 24.7422 9.05737 24.7029C9.21868 24.6166 9.30276 24.3851 9.46021 23.5943C9.53403 23.2237 9.61448 22.8976 9.63903 22.8695C9.66358 22.8415 9.99464 23.0326 10.3747 23.2943C11.2897 23.9243 11.3447 23.9263 11.9488 23.3525L12.3884 22.9349V23.7897C12.3884 24.8913 12.4748 25.1556 13.0098 25.6911L13.3778 26.0593L13.3958 27.6833C13.4135 29.2808 13.4162 29.3119 13.5603 29.6002C13.7498 29.9792 14.1573 30.3877 14.5271 30.5695C14.8109 30.7089 14.866 30.714 16.2878 30.7317C17.6853 30.749 17.7723 30.7436 18.1038 30.6196C18.576 30.4429 19.0562 29.9647 19.2456 29.4826C19.3758 29.1509 19.3848 29.0429 19.4071 27.5347C19.4201 26.6565 19.4514 25.938 19.4767 25.938C19.6018 25.938 20.0376 25.4141 20.1984 25.0704L20.38 24.6823L20.4135 23.1862C20.4463 21.7257 20.4508 21.682 20.602 21.3575C20.8069 20.9173 21.1304 20.5767 21.8143 20.0807C22.1247 19.8555 22.4552 19.6071 22.5489 19.5287L22.719 19.386L22.5396 19.161C22.4409 19.0373 22.28 18.86 22.1821 18.7669L22.004 18.5978L21.7225 18.8293C21.5678 18.9566 21.2104 19.2257 20.9284 19.4273C20.3483 19.8419 19.9471 20.2961 19.706 20.8111C19.4077 21.4482 19.3611 21.7522 19.3607 23.0646C19.3606 23.7265 19.3328 24.3677 19.299 24.4894C19.2159 24.7885 18.9281 25.1026 18.6672 25.179C18.5265 25.2202 17.6965 25.2356 16.251 25.2237L14.0491 25.2056L13.8339 25.0414C13.4727 24.7659 13.46 24.7068 13.4272 23.1548C13.3945 21.6058 13.347 21.3213 13.0176 20.7032C12.7524 20.2058 12.3435 19.7834 11.6608 19.3016C10.8944 18.7608 10.3854 18.3083 9.91366 17.748C7.73286 15.1583 7.28931 11.6361 8.76341 8.61363C9.32304 7.46619 10.2615 6.32889 11.2713 5.57455C12.519 4.6425 14.1777 4.02562 15.7065 3.92519C16.2453 3.8898 16.2556 3.89156 16.2556 4.019C16.2556 4.20287 16.312 4.2934 16.9999 5.21455C17.5461 5.94586 17.61 6.05643 17.5791 6.2168C17.5327 6.45709 17.3454 6.6024 17.0841 6.60076C16.9668 6.6 16.5281 6.54791 16.1091 6.48492C15.0671 6.3283 14.8449 6.33193 14.6791 6.50836C14.5635 6.63141 14.518 6.85002 14.3164 8.25152C14.0772 9.91377 14.076 10.0551 14.2993 10.2404C14.3445 10.2778 14.8887 10.383 15.5089 10.4741C16.5491 10.627 16.6467 10.6516 16.7683 10.7922C17.0472 11.1145 16.9339 11.2811 15.9193 12.0399C15.4383 12.3997 15.0139 12.7618 14.9761 12.8447C14.9383 12.9277 14.9247 13.0643 14.9458 13.1484C14.9668 13.2325 15.4158 13.8778 15.9434 14.5825C16.9162 15.8819 17.0612 16.0229 17.3496 15.9506C17.422 15.9323 17.8558 15.6378 18.3134 15.296C18.7712 14.9541 19.2141 14.6548 19.2979 14.6308C19.4958 14.574 19.6825 14.6462 19.7997 14.8249C19.8867 14.9578 19.8818 15.0509 19.7327 16.1096C19.5783 17.2067 19.5761 17.2571 19.6747 17.4077C19.7312 17.4939 19.8353 17.5861 19.9061 17.6126C19.977 17.6391 20.7277 17.7595 21.5745 17.8802C23.2311 18.1162 23.3683 18.1129 23.5136 17.8336C23.5502 17.7632 23.6463 17.2442 23.7271 16.6802C23.8825 15.5957 23.9541 15.4034 24.23 15.3296C24.3093 15.3084 24.4314 15.3122 24.5015 15.3381C24.5714 15.364 24.9135 15.7671 25.2615 16.2339C25.9529 17.1612 26.1593 17.3356 26.4398 17.2297C26.6226 17.1607 28.9388 15.4482 29.1023 15.2612C29.3251 15.0062 29.2485 14.8127 28.5578 13.8861C28.2021 13.4087 27.8947 12.954 27.875 12.8757C27.8547 12.7949 27.8756 12.6681 27.9236 12.5827C28.0839 12.2967 28.2002 12.2858 29.3513 12.4492C29.9388 12.5327 30.4771 12.5811 30.5664 12.5586C30.6546 12.5364 30.7648 12.4593 30.8114 12.3873C30.8953 12.2573 31.3142 9.54047 31.3142 9.12592C31.3142 8.86922 31.1923 8.67908 30.996 8.62986C30.9162 8.60982 30.4132 8.52979 29.8782 8.45203C28.8468 8.30215 28.6467 8.22738 28.5815 7.96775C28.5175 7.71275 28.6624 7.546 29.4992 6.91213C29.9335 6.58312 30.335 6.25723 30.3914 6.18785C30.6234 5.9025 30.5588 5.76996 29.4994 4.35861C28.6087 3.17209 28.484 3.02988 28.3044 2.99619C28.051 2.94867 28.0172 2.96748 27.0211 3.71144C26.2966 4.2525 26.1782 4.32111 25.9954 4.30541C25.8502 4.29293 25.7528 4.23932 25.6679 4.12512L25.547 3.96252L25.7012 2.86652C25.8369 1.90131 25.8458 1.74762 25.7751 1.57851C25.731 1.47293 25.6304 1.36201 25.5515 1.33201C25.3906 1.27084 22.5987 0.859921 22.3439 0.859921C22.2538 0.859921 22.1115 0.919218 22.0277 0.991757ZM22.792 2.1566C22.7733 2.26523 22.7186 2.62576 22.6703 2.95781C22.6221 3.28986 22.5466 3.64775 22.5026 3.7531C22.2888 4.26498 21.6936 4.66687 21.1478 4.66793C20.4828 4.66922 20.1723 4.46531 19.5311 3.60609C19.2697 3.25588 19.0416 2.9693 19.0243 2.9693C19.0069 2.9693 18.6531 3.22307 18.238 3.53326L17.4833 4.09723L17.6209 4.28033C18.5072 5.46029 18.568 5.56213 18.6288 5.96736C18.7557 6.81346 18.0212 7.65662 17.157 7.65686C17.0319 7.65691 16.6195 7.61309 16.2406 7.55953C15.8618 7.50598 15.5367 7.47732 15.5182 7.49584C15.4996 7.51435 15.425 7.94109 15.3525 8.44412L15.2205 9.35871L15.3425 9.38508C15.4097 9.39961 15.7678 9.45387 16.1384 9.50572C16.509 9.55752 16.918 9.64623 17.0473 9.70283C17.7125 9.99422 18.0766 10.7822 17.8717 11.487C17.7506 11.9035 17.5488 12.1319 16.8144 12.6834C16.4909 12.9264 16.2174 13.132 16.2065 13.1404C16.19 13.1529 17.1673 14.4862 17.3133 14.6504C17.3379 14.678 17.6258 14.4978 17.953 14.2499C18.6921 13.6903 18.9723 13.5608 19.4307 13.5673C20.1898 13.578 20.7735 14.0889 20.9119 14.8638C20.932 14.9766 20.8959 15.424 20.8316 15.858C20.7673 16.292 20.7266 16.6591 20.7413 16.6737C20.7683 16.7007 22.6024 16.9754 22.62 16.955C22.6252 16.9489 22.6841 16.5657 22.7508 16.1034C22.9118 14.9876 23.0919 14.6697 23.7202 14.3917C24.1209 14.2145 24.6182 14.2275 25.0235 14.4258C25.2826 14.5526 25.4142 14.6856 25.8646 15.2766C26.1582 15.6619 26.4058 15.9771 26.4147 15.9771C26.4236 15.9771 26.7738 15.7201 27.193 15.4058L27.9552 14.8345L27.4679 14.19C26.9062 13.4471 26.7734 13.13 26.818 12.6387C26.8684 12.0832 27.1625 11.6552 27.6497 11.4283C28.0031 11.2637 28.4366 11.2501 29.2634 11.3775C29.5696 11.4247 29.8488 11.4637 29.884 11.4643C29.9424 11.4653 30.2438 9.60996 30.1925 9.56502C30.181 9.55494 29.8552 9.50262 29.4685 9.44865C28.5638 9.32244 28.2673 9.22336 27.9902 8.95441C27.6444 8.61885 27.5349 8.34797 27.5349 7.82795C27.5349 7.19807 27.6952 6.95555 28.5329 6.31822C28.8863 6.04928 29.1755 5.79732 29.1755 5.7583C29.1755 5.68517 28.1453 4.26434 28.0895 4.26053C28.0723 4.25935 27.7598 4.47908 27.3951 4.74891C27.0305 5.01867 26.6328 5.26916 26.5115 5.30555C25.624 5.57144 24.7479 5.06543 24.563 4.18014C24.5125 3.93791 24.5224 3.71279 24.6128 3.05209L24.7257 2.22674L23.9623 2.12291C23.5425 2.06578 23.1151 2.0056 23.0125 1.98908C22.8386 1.96119 22.8238 1.97244 22.792 2.1566ZM2.93069 3.81475C2.7828 4.02193 2.66187 4.21717 2.66187 4.24857C2.66187 4.29779 6.06599 6.77789 6.13354 6.77789C6.1472 6.77789 6.28624 6.59238 6.44257 6.36568C6.72224 5.96004 6.72499 5.95178 6.61325 5.84666C6.48645 5.72736 3.26661 3.43805 3.2256 3.43805C3.21124 3.43805 3.07853 3.60756 2.93069 3.81475ZM22.2615 5.49574C20.9167 5.64562 19.7573 6.45603 19.1617 7.66242C18.8078 8.37914 18.6955 8.91064 18.7356 9.67828C18.865 12.1562 21.1498 13.8897 23.6016 13.3702C23.8231 13.3233 24.2294 13.176 24.5046 13.0428C24.9065 12.8482 25.1053 12.701 25.5156 12.2941C25.952 11.8614 26.065 11.7066 26.2916 11.231C26.68 10.4158 26.7976 9.75568 26.6909 8.98875C26.381 6.7609 24.4652 5.25012 22.2615 5.49574ZM12.2449 6.674C11.4703 7.21131 10.589 8.26365 10.108 9.22576C8.78913 11.8643 9.34144 15.1794 11.4483 17.2709C12.0707 17.8887 12.625 18.2633 13.6562 18.7631C14.4196 19.1331 14.5951 19.2449 14.9162 19.566C15.4473 20.0972 15.8455 20.9623 15.8455 21.5851V21.7779H16.3804H16.9153L16.875 21.4117C16.8116 20.8355 16.6786 20.3824 16.4152 19.8456C16.2226 19.4531 16.0659 19.2422 15.6679 18.8401C15.1988 18.366 15.1085 18.3042 14.3477 17.9355C13.3116 17.4336 12.8159 17.1157 12.3096 16.6287C11.3344 15.6907 10.7163 14.5346 10.5117 13.2658C10.398 12.5602 10.4654 11.3873 10.6569 10.7388C11.0419 9.43547 11.7554 8.37914 12.7693 7.61115C12.9626 7.46467 13.1436 7.32498 13.1716 7.30072C13.2305 7.24939 12.7395 6.42609 12.6521 6.42978C12.6199 6.43113 12.4367 6.54105 12.2449 6.674ZM22.3787 6.52383C21.1708 6.6975 20.1622 7.58654 19.8609 8.74324C19.3861 10.5663 20.8083 12.4029 22.6948 12.4029C22.9425 12.4029 23.2952 12.3638 23.4788 12.3159C24.8905 11.9483 25.8877 10.4202 25.6358 9.01084C25.4346 7.88484 24.5366 6.8809 23.4905 6.61254C23.1979 6.53748 22.6099 6.4906 22.3787 6.52383ZM3.68726 8.84156C2.65601 9.10189 1.80763 9.31775 1.80206 9.32127C1.79644 9.32478 1.84794 9.55822 1.91661 9.84C2.01435 10.2414 2.06099 10.3465 2.13188 10.3252C2.18169 10.3103 3.08591 10.0828 4.14136 9.81973C5.24878 9.54369 6.05972 9.31353 6.05895 9.27545C6.05825 9.23918 6.01056 9.02496 5.95302 8.79937C5.86097 8.43844 5.83126 8.38799 5.70534 8.37873C5.62665 8.37299 4.71851 8.58129 3.68726 8.84156ZM6.95304 14.0675C6.8219 14.5577 6.43325 14.8638 5.94206 14.8638C5.66087 14.8638 5.48374 14.7792 4.88075 14.3568C4.63483 14.1845 4.4113 14.0435 4.38405 14.0435C4.35681 14.0435 4.14563 14.2312 3.91472 14.4605L3.49489 14.8776L3.9003 15.4713C4.32071 16.087 4.40679 16.3303 4.33659 16.7046C4.29171 16.9437 4.06712 17.2334 3.83251 17.3547C3.7428 17.4011 3.40976 17.494 3.09241 17.5613C2.77507 17.6285 2.46927 17.6969 2.41284 17.7132C2.3246 17.7387 2.3103 17.8193 2.3103 18.2916C2.3103 18.7629 2.32478 18.8448 2.41284 18.8723C2.46927 18.89 2.77272 18.9571 3.08726 19.0216C3.87446 19.1829 4.14716 19.3459 4.29856 19.7456C4.45724 20.1642 4.36489 20.4629 3.84903 21.1997L3.49489 21.7056L3.91472 22.1226C4.14563 22.3519 4.35581 22.5396 4.38183 22.5396C4.40778 22.5396 4.65769 22.3832 4.93706 22.192C5.50776 21.8014 5.68759 21.7193 5.97241 21.7193C6.34923 21.7193 6.68239 21.923 6.85812 22.2607C6.90405 22.349 6.99435 22.6786 7.0588 22.9931C7.12325 23.3077 7.1904 23.6112 7.20804 23.6675C7.23558 23.7557 7.31761 23.7701 7.79163 23.7701C8.31569 23.7701 8.3447 23.7635 8.37323 23.6382C8.38976 23.5657 8.45685 23.26 8.52224 22.9588C8.58769 22.6577 8.67915 22.3378 8.72562 22.248C8.84702 22.0133 9.13665 21.7887 9.37583 21.7438C9.74655 21.6742 9.99282 21.7608 10.6105 22.1779L11.2071 22.5807L11.7167 22.0688C12.2252 21.5578 12.2261 21.5566 12.1607 21.3586C12.0542 21.0359 11.6558 20.6101 11.0302 20.1503C10.7074 19.9131 10.4383 19.7275 10.4321 19.7377C10.286 19.9799 9.87229 20.4676 9.67794 20.6269C9.17497 21.039 8.41337 21.3091 7.75442 21.3091C6.43636 21.3091 5.19728 20.3421 4.86095 19.0508C4.75823 18.6565 4.74616 18.0027 4.83446 17.6194C5.07511 16.5752 6.02339 15.6185 7.05358 15.3807C7.36724 15.3083 7.38552 15.2781 7.28685 14.995C7.25245 14.8963 7.17862 14.5899 7.12278 14.314L7.02124 13.8124L6.95304 14.0675ZM7.22415 16.4205C6.36229 16.6859 5.76235 17.5648 5.84216 18.445C5.90526 19.1412 6.34911 19.7699 6.98913 20.07C7.45835 20.29 8.11595 20.2872 8.5806 20.0633C8.94599 19.8871 9.31442 19.5483 9.5004 19.2174L9.62614 18.9936L9.24399 18.5547C8.80524 18.0507 8.19687 17.1573 7.95763 16.6656C7.77376 16.2877 7.7171 16.2687 7.22415 16.4205ZM25.8064 19.7857V20.313H27.5642H29.322V19.7857V19.2584H27.5642H25.8064V19.7857ZM25.2898 22.2795L24.9783 22.6579L25.1433 22.7965C25.2341 22.8729 25.9148 23.4412 26.656 24.0595L28.0037 25.1836L28.2266 24.9309C28.3493 24.792 28.5011 24.608 28.5641 24.522L28.6785 24.3657L27.2131 23.1451C26.407 22.4737 25.7146 21.9192 25.6744 21.9127C25.6342 21.9063 25.4612 22.0714 25.2898 22.2795ZM15.8455 23.5357V24.2974H16.3728H16.9001V23.5357V22.774H16.3728H15.8455V23.5357ZM22.8181 25.0005V26.7584H23.3455H23.8728V25.0005V23.2427H23.3455H22.8181V25.0005ZM14.4392 26.7584V27.2271H16.4021H18.365V26.7584V26.2896H16.4021H14.4392V26.7584ZM14.4392 28.64C14.4392 29.0823 14.5941 29.3874 14.9082 29.5639C15.1138 29.6795 15.2145 29.688 16.3719 29.688C17.4075 29.688 17.649 29.6719 17.8194 29.591C18.1247 29.4461 18.3021 29.1363 18.3455 28.6725L18.3819 28.2818H16.4106H14.4392V28.64Z" fill="#06268B"/>
</g>
</g>
<defs>
<clipPath id="clip0_470_97">
<rect width="31" height="31" fill="white" transform="translate(0.5)"/>
</clipPath>
</defs>
</svg>
