<?xml version="1.0" encoding="UTF-8"?>
<svg xmlns="http://www.w3.org/2000/svg" id="Layer_1" data-name="Layer 1" width="311.29" height="103.25" viewBox="0 0 311.29 103.25">
  <title>Untitled-1</title>
  <path d="M348.42,289.52c2.82,2.15,6.33,1.41,8.75.43,2.78-1.37,5.64-3.06,8.17-4.32,6.2-4.16,28.71-12.95,20.05-6.23,0,0-12.8,6.69-21.89,15.56h0l-.58.6c-1.68,1.81-6.34,7.47-6.38,14.48.22,2.8,3.14,20.4,41.35,28.34a51.46,51.46,0,0,0-50.76-80.91c-.43,4.77-1.94,13.84-2.56,21.12C344.48,281.13,344.75,286.74,348.42,289.52Zm5.39-16.08a5.76,5.76,0,1,1-3.47,7.37A5.76,5.76,0,0,1,353.81,273.44Z" transform="translate(-304.38 -256.66)" style="fill:#1b98fd"></path>
  <path d="M346.57,324.07c-6.29-10-14-32.65-5.23-57,1.47-4.11,2.61-7.09,3.48-9.15a51.6,51.6,0,1,0,34,96.64C362.07,345.58,352.28,334.19,346.57,324.07Zm-19.66-42.18a2.53,2.53,0,1,1-2.53,2.53A2.52,2.52,0,0,1,326.91,281.89Zm-.59,11.7a4,4,0,1,1-4,4A4,4,0,0,1,326.32,293.59Zm-2.87,17.06a4.78,4.78,0,1,1,4.77,4.77A4.78,4.78,0,0,1,323.45,310.65Zm4.25,12.44a4.93,4.93,0,1,1,4.93,4.93A4.93,4.93,0,0,1,327.7,323.09ZM339.34,339a4.54,4.54,0,1,1,4.53-4.54A4.53,4.53,0,0,1,339.34,339Zm8.59,8.95a3.47,3.47,0,1,1,3.48-3.47A3.47,3.47,0,0,1,347.93,347.94Zm11.61,5.14a1.61,1.61,0,1,1-1.61-1.6A1.61,1.61,0,0,1,359.54,353.08Z" transform="translate(-304.38 -256.66)" style="fill:#00448d"></path>
  <path d="M433.27,287a7.78,7.78,0,0,0-.7-3.77,2.94,2.94,0,0,0-2.8-1.23h-.5v-1.5H443a21.14,21.14,0,0,1,9.33,2q4.17,2,4.17,8a8.12,8.12,0,0,1-2.17,6.05,10.77,10.77,0,0,1-4.88,2.85,19.7,19.7,0,0,1-5,.7h-4.75v13.35h-6.5Zm9.5,11.15a6.77,6.77,0,0,0,4.85-1.8q1.9-1.8,1.9-6.05t-1.87-6a6.44,6.44,0,0,0-4.63-1.8,9.93,9.93,0,0,0-2.25.2l-1,.15v15.3Z" transform="translate(-304.38 -256.66)" style="fill:#00448d"></path>
  <path d="M460.37,287a7.78,7.78,0,0,0-.7-3.77,2.94,2.94,0,0,0-2.8-1.23h-.5v-1.5h6a5.17,5.17,0,0,1,2.75.6,3.34,3.34,0,0,1,1.35,2,14.6,14.6,0,0,1,.4,3.92v4.4a13.34,13.34,0,0,1,1.55-1,9.19,9.19,0,0,1,3.95-.95,10.84,10.84,0,0,1,6.78,2.08q2.72,2.07,2.72,7.07v14.85h-6.5v-14.6q0-3.6-1.27-5.25a3.92,3.92,0,0,0-3.23-1.65,5.57,5.57,0,0,0-2.85.9,7,7,0,0,0-1.15.85v19.75h-6.5Z" transform="translate(-304.38 -256.66)" style="fill:#00448d"></path>
  <path d="M488.77,321.7a8.38,8.38,0,0,0,4.45-1.05,7.37,7.37,0,0,0,2.75-3.8l1-2.7-9-19.7q-1.65-3.6-4.65-4v-1h4.4a7.1,7.1,0,0,1,3.9,1.08,7,7,0,0,1,2.6,2.92l5.75,12.6,6.1-16.1h2.65l-10.1,26.75c-.93,2.6-2,4.38-3.25,5.33a7.38,7.38,0,0,1-4.65,1.42h-2Z" transform="translate(-304.38 -256.66)" style="fill:#00448d"></path>
  <path d="M513,311.9a3.5,3.5,0,0,1-1-2.12,28.86,28.86,0,0,1-.2-3.83h1.75a7.46,7.46,0,0,0,2,4.18,6.07,6.07,0,0,0,4.45,1.57q5,0,5-3.4a2.64,2.64,0,0,0-1.07-2.15,16.84,16.84,0,0,0-3.43-1.9l-2.6-1.1a15.11,15.11,0,0,1-4.8-3,5.52,5.52,0,0,1-1.6-4,5.57,5.57,0,0,1,2.63-4.9,12.15,12.15,0,0,1,6.87-1.75q5.85,0,8,2.05a3.47,3.47,0,0,1,1,2.1,28.57,28.57,0,0,1,.2,3.85h-1.75a7.44,7.44,0,0,0-2.05-4.17,6.08,6.08,0,0,0-4.45-1.58,4.72,4.72,0,0,0-3.2.93,3.12,3.12,0,0,0-1,2.47,2.73,2.73,0,0,0,.88,2.08,9.51,9.51,0,0,0,2.67,1.62l3,1.25a17.56,17.56,0,0,1,5.33,3.13,5.85,5.85,0,0,1-1.2,9.05,14.14,14.14,0,0,1-7.43,1.72Q515.22,314,513,311.9Z" transform="translate(-304.38 -256.66)" style="fill:#00448d"></path>
  <path d="M537,296.45a7.78,7.78,0,0,0-.7-3.77,2.94,2.94,0,0,0-2.8-1.23H533V290h6a5.17,5.17,0,0,1,2.75.6,3.34,3.34,0,0,1,1.35,2,14.6,14.6,0,0,1,.4,3.92v17H537Zm.48-10.3a3.92,3.92,0,0,1-1-2.7,2.63,2.63,0,0,1,2.75-2.8,3.54,3.54,0,0,1,2.78,1.1,3.91,3.91,0,0,1,1,2.7,2.61,2.61,0,0,1-2.75,2.8A3.51,3.51,0,0,1,537.45,286.15Z" transform="translate(-304.38 -256.66)" style="fill:#00448d"></path>
  <path d="M553.79,312.33a11,11,0,0,1-4.17-4.4,14.09,14.09,0,0,1,0-12.45,11,11,0,0,1,4.17-4.4,13.28,13.28,0,0,1,12.75,0,10.92,10.92,0,0,1,4.18,4.4,14.09,14.09,0,0,1,0,12.45,11,11,0,0,1-4.18,4.4,13.35,13.35,0,0,1-12.75,0ZM564.07,309a20.14,20.14,0,0,0,0-14.5,4.14,4.14,0,0,0-7.8,0,20.14,20.14,0,0,0,0,14.5,4.14,4.14,0,0,0,7.8,0Z" transform="translate(-304.38 -256.66)" style="fill:#00448d"></path>
  <path d="M577.57,292.2h-3V290h3V288.6q0-4.25,2.42-6.45t7.33-2.2a15.34,15.34,0,0,1,2.67.23,5.06,5.06,0,0,1,1.88.62,4.68,4.68,0,0,1,2,2.15l-2,1.75a5.45,5.45,0,0,0-1.85-1.85,4.65,4.65,0,0,0-2.4-.65,2.87,2.87,0,0,0-2.63,1.45,10.24,10.24,0,0,0-.87,5V290h6.5v2.25h-6.5v21.25h-6.5Z" transform="translate(-304.38 -256.66)" style="fill:#00448d"></path>
  <path d="M595.67,321.7a8.38,8.38,0,0,0,4.45-1.05,7.37,7.37,0,0,0,2.75-3.8l1-2.7-9-19.7q-1.65-3.6-4.65-4v-1h4.4a7.1,7.1,0,0,1,3.9,1.08,7,7,0,0,1,2.6,2.92l5.75,12.6L613,290h2.65l-10.1,26.75c-.93,2.6-2,4.38-3.25,5.33a7.38,7.38,0,0,1-4.65,1.42h-2Z" transform="translate(-304.38 -256.66)" style="fill:#00448d"></path>
  <path d="M430.46,339.41V323.94h5.89a6.35,6.35,0,0,1,3.64.93,3.08,3.08,0,0,1,1.36,2.72,3.22,3.22,0,0,1-.48,1.82,3.32,3.32,0,0,1-1.24,1.12,4.79,4.79,0,0,1-1.6.49l0,0a5.09,5.09,0,0,1,2.79,1.34,3.88,3.88,0,0,1,1.09,2.94,3.62,3.62,0,0,1-2.61,3.76,8.23,8.23,0,0,1-2.59.4Zm1.93-9.2h3.87a4.16,4.16,0,0,0,2.17-.54,2,2,0,0,0,.9-1.82,2.19,2.19,0,0,0-.69-1.67,3.27,3.27,0,0,0-2.27-.65h-4Zm0,7.61h4.35a3.78,3.78,0,0,0,2-.44,2.39,2.39,0,0,0,1-1.11,3.59,3.59,0,0,0,.29-1.41,2.94,2.94,0,0,0-.49-1.72,2.89,2.89,0,0,0-1.36-1,6,6,0,0,0-2.09-.33h-3.66Z" transform="translate(-304.38 -256.66)" style="fill:#666"></path>
  <path d="M452.65,339.67a5.33,5.33,0,0,1-2.86-.75,4.76,4.76,0,0,1-1.86-2.1,7.22,7.22,0,0,1-.66-3.2,7.36,7.36,0,0,1,.66-3.23,4.9,4.9,0,0,1,1.84-2.1,5.17,5.17,0,0,1,2.81-.74,6.31,6.31,0,0,1,1.85.29,4.47,4.47,0,0,1,1.7,1,5.2,5.2,0,0,1,1.23,2,9.06,9.06,0,0,1,.47,3.19h-9.4v-1.46h7.83l-.51.67a6.27,6.27,0,0,0-.5-2.45,2.91,2.91,0,0,0-1.14-1.33,3.17,3.17,0,0,0-3.33.11,3.37,3.37,0,0,0-1.13,1.56,6.77,6.77,0,0,0-.4,2.49,5.52,5.52,0,0,0,.88,3.35,3,3,0,0,0,2.52,1.18,3.24,3.24,0,0,0,2-.59,3.32,3.32,0,0,0,1.18-1.71l1.77.6a5.47,5.47,0,0,1-1.11,1.73,4.79,4.79,0,0,1-1.66,1.09A5.68,5.68,0,0,1,452.65,339.67Z" transform="translate(-304.38 -256.66)" style="fill:#666"></path>
  <path d="M471.87,343.6V327.81h1.69v2.41l-.05-.17a3.46,3.46,0,0,1,1.57-1.88,4.57,4.57,0,0,1,2.33-.62,4.25,4.25,0,0,1,2.49.74,4.85,4.85,0,0,1,1.68,2.1,8,8,0,0,1,.6,3.23,7.69,7.69,0,0,1-.61,3.21,4.8,4.8,0,0,1-1.68,2.1,4.29,4.29,0,0,1-2.48.74,5,5,0,0,1-2.26-.57,3.63,3.63,0,0,1-1.68-1.93l.16-.08v6.51Zm5-5.44a2.86,2.86,0,0,0,2.37-1.19,6.71,6.71,0,0,0,0-6.73,2.83,2.83,0,0,0-2.37-1.19,3.08,3.08,0,0,0-1.66.47,3.23,3.23,0,0,0-1.21,1.48,6.27,6.27,0,0,0-.45,2.57,5.24,5.24,0,0,0,1,3.46A3,3,0,0,0,476.91,338.16Z" transform="translate(-304.38 -256.66)" style="fill:#666"></path>
  <path d="M487.72,339.41v-11.6h1.7v2.46l-.06-.28a3.72,3.72,0,0,1,1.55-1.82,4,4,0,0,1,2.1-.62,4.07,4.07,0,0,1,.61.05,2.53,2.53,0,0,1,.55.18l-.24,1.7a4,4,0,0,0-1.17-.18,4,4,0,0,0-.91.14,2.9,2.9,0,0,0-1.07.58,3.35,3.35,0,0,0-.89,1.3,6,6,0,0,0-.36,2.29v5.8Z" transform="translate(-304.38 -256.66)" style="fill:#666"></path>
  <path d="M503.57,339.67a5.39,5.39,0,0,1-2.88-.77,5.22,5.22,0,0,1-1.94-2.14,7.46,7.46,0,0,1,0-6.31,5.2,5.2,0,0,1,1.94-2.13,5.77,5.77,0,0,1,5.76,0,5.2,5.2,0,0,1,1.94,2.13,7.46,7.46,0,0,1,0,6.31,5.22,5.22,0,0,1-1.94,2.14A5.39,5.39,0,0,1,503.57,339.67Zm0-1.51a3.13,3.13,0,0,0,2.6-1.22,6.33,6.33,0,0,0,0-6.67,3.37,3.37,0,0,0-5.19,0,6.33,6.33,0,0,0,0,6.67A3.11,3.11,0,0,0,503.57,338.16Z" transform="translate(-304.38 -256.66)" style="fill:#666"></path>
  <path d="M517.87,339.67a4.26,4.26,0,0,1-2-.45,3.25,3.25,0,0,1-1.32-1.22,3.34,3.34,0,0,1-.46-1.75,3.25,3.25,0,0,1,.61-1.92,4.2,4.2,0,0,1,1.9-1.42,8.74,8.74,0,0,1,3.29-.53h1.93l-.19.2v-.64a3.54,3.54,0,0,0-.56-2.14,2.17,2.17,0,0,0-1.87-.75,2.68,2.68,0,0,0-1.9.64,2.44,2.44,0,0,0-.71,1.71l-2-.46a3.18,3.18,0,0,1,.72-1.7,4.36,4.36,0,0,1,1.65-1.23,5.81,5.81,0,0,1,2.4-.46,4.5,4.5,0,0,1,2.3.53,3.11,3.11,0,0,1,1.3,1.53,6.22,6.22,0,0,1,.42,2.41v5.29a.78.78,0,0,0,.1.48.63.63,0,0,0,.44.11h.65v1.51h-1.15a1.72,1.72,0,0,1-1.22-.46,1.5,1.5,0,0,1-.5-1.15V337h.27a4.34,4.34,0,0,1-.49.92,4.45,4.45,0,0,1-.82.87,4.12,4.12,0,0,1-1.17.65A4.76,4.76,0,0,1,517.87,339.67Zm.41-1.51a3.26,3.26,0,0,0,1.65-.44,3.1,3.1,0,0,0,1.23-1.38,5.39,5.39,0,0,0,.47-2.44v-.1h-1.81a5.46,5.46,0,0,0-2.25.38,2.63,2.63,0,0,0-1.17.92,2.08,2.08,0,0,0-.34,1.11,2,2,0,0,0,.24,1,1.81,1.81,0,0,0,.74.71A2.71,2.71,0,0,0,518.28,338.16Z" transform="translate(-304.38 -256.66)" style="fill:#666"></path>
  <path d="M534.51,339.67a5.16,5.16,0,0,1-2.82-.75,4.78,4.78,0,0,1-1.84-2.1,7.38,7.38,0,0,1-.64-3.21,7.46,7.46,0,0,1,.64-3.22,4.78,4.78,0,0,1,1.84-2.1,5.16,5.16,0,0,1,2.82-.74,5.29,5.29,0,0,1,2.23.45,4.75,4.75,0,0,1,1.67,1.31,5.58,5.58,0,0,1,1,2.06l-1.83.49a4,4,0,0,0-1.08-2.08,2.78,2.78,0,0,0-2-.73,2.86,2.86,0,0,0-2.46,1.19,7,7,0,0,0,0,6.74,2.86,2.86,0,0,0,2.46,1.18,2.81,2.81,0,0,0,2-.7,3.78,3.78,0,0,0,1.08-2l1.83.52a5.92,5.92,0,0,1-.71,1.57,5.2,5.2,0,0,1-1.07,1.17,4.5,4.5,0,0,1-1.39.73A5.48,5.48,0,0,1,534.51,339.67Z" transform="translate(-304.38 -256.66)" style="fill:#666"></path>
  <path d="M547.15,339.41A1.72,1.72,0,0,1,546,339a1.45,1.45,0,0,1-.52-1.15v-8.49h-1.87v-1.5h1.87v-2.43l1.8-.39v2.82h2.3v1.5h-2.3v8a.76.76,0,0,0,.11.48.6.6,0,0,0,.43.11h1.77v1.51Z" transform="translate(-304.38 -256.66)" style="fill:#666"></path>
  <path d="M555.92,325.86a1.48,1.48,0,0,1-1.07-.44,1.51,1.51,0,0,1,0-2.13,1.48,1.48,0,0,1,1.07-.44,1.49,1.49,0,0,1,1.5,1.51,1.45,1.45,0,0,1-.43,1.06A1.46,1.46,0,0,1,555.92,325.86Zm-.9,13.55v-11.6h1.8v11.6Z" transform="translate(-304.38 -256.66)" style="fill:#666"></path>
  <path d="M566.25,339.41l-4.36-11.6h2l3.69,10.58h-.35l3.66-10.58h2l-4.34,11.6Z" transform="translate(-304.38 -256.66)" style="fill:#666"></path>
  <path d="M582.41,339.67a5.33,5.33,0,0,1-2.86-.75,4.76,4.76,0,0,1-1.86-2.1,7.22,7.22,0,0,1-.66-3.2,7.36,7.36,0,0,1,.66-3.23,4.9,4.9,0,0,1,1.84-2.1,5.17,5.17,0,0,1,2.81-.74,6.31,6.31,0,0,1,1.85.29,4.47,4.47,0,0,1,1.7,1,5.2,5.2,0,0,1,1.23,2,9.3,9.3,0,0,1,.47,3.19h-9.4v-1.46H586l-.51.67a6.27,6.27,0,0,0-.5-2.45,2.91,2.91,0,0,0-1.14-1.33,3.17,3.17,0,0,0-3.33.11,3.46,3.46,0,0,0-1.14,1.56,7,7,0,0,0-.39,2.49,5.52,5.52,0,0,0,.88,3.35,3,3,0,0,0,2.52,1.18,3.24,3.24,0,0,0,2-.59,3.32,3.32,0,0,0,1.18-1.71l1.77.6a5.47,5.47,0,0,1-1.11,1.73,4.79,4.79,0,0,1-1.66,1.09A5.71,5.71,0,0,1,582.41,339.67Z" transform="translate(-304.38 -256.66)" style="fill:#666"></path>
</svg>
